<svg width="112" height="32" viewBox="0 0 112 32" fill="none" xmlns="http://www.w3.org/2000/svg">
<path d="M5.76191 0.110725C3.47034 1.07249 0.951528 3.78612 0.15594 7.19492C-0.851761 11.5125 3.34092 13.3389 3.68509 12.7409C4.08979 12.0374 2.93381 11.7996 2.69581 9.5591C2.38828 6.66547 3.73093 3.43227 5.42082 2.01359C5.73449 1.74985 5.71979 2.11688 5.71979 2.79535C5.71979 4.00876 5.65289 14.902 5.65289 17.1754C5.65289 20.2514 5.52611 21.2229 5.2982 22.1829C5.06766 23.1554 4.69652 23.8128 4.97751 24.066C5.29162 24.349 6.63273 23.6754 7.40902 22.5899C8.33995 21.2879 8.6659 19.724 8.72447 18.0262C8.7951 15.9791 8.79203 12.7308 8.7951 10.878C8.79773 9.17888 8.82362 4.20326 8.76527 1.21205C8.75101 0.477979 6.72026 -0.291694 5.76191 0.110725Z" fill="white"/>
<path d="M87.1306 14.507C87.0567 16.1064 86.7033 17.3563 86.2648 18.238C85.4159 19.9451 83.6545 20.475 82.9065 18.0213C82.499 16.6837 82.4799 14.4499 82.7727 12.5833C83.0711 10.682 83.9042 9.24592 85.2832 9.37537C86.6436 9.5035 87.2804 11.2598 87.1306 14.5073V14.507ZM64.1974 24.4293C64.179 27.0864 63.7615 29.4161 62.8666 30.093C61.597 31.0526 59.8906 30.3326 60.244 28.3937C60.5566 26.6778 62.0352 24.9255 64.2011 22.7844C64.2011 22.7844 64.2055 23.2728 64.1974 24.4293ZM63.8508 14.4914C63.7732 15.9481 63.3963 17.4112 62.985 18.238C62.1361 19.9451 60.362 20.4787 59.6268 18.0213C59.124 16.3422 59.2444 14.1695 59.4929 12.8002C59.8158 11.0237 60.5985 9.37559 62.0034 9.37559C63.3696 9.37559 64.0434 10.8774 63.8508 14.4914ZM50.5658 14.4695C50.4824 16.0119 50.1821 17.3013 49.7002 18.238C48.8281 19.9334 47.1026 20.471 46.3419 18.0213C45.7933 16.255 45.98 13.8466 46.2081 12.5455C46.5468 10.6147 47.3948 9.24592 48.7186 9.37559C50.0784 9.50878 50.7393 11.2598 50.5658 14.4695ZM111.447 16.2712C111.115 16.2712 110.963 16.6145 110.838 17.1921C110.403 19.2018 109.945 19.6552 109.355 19.6552C108.696 19.6552 108.104 18.6605 107.951 16.6688C107.832 15.1026 107.851 12.2196 108.004 9.35164C108.035 8.7624 107.873 8.17932 106.296 7.60526C105.617 7.35822 104.63 6.99449 104.139 8.18262C102.751 11.5396 102.208 14.2046 102.08 15.2868C102.073 15.3429 102.005 15.3545 101.993 15.2235C101.911 14.3565 101.73 12.7807 101.707 9.47032C101.702 8.82438 101.566 8.27471 100.854 7.8246C100.393 7.53229 98.9907 7.0158 98.486 7.63053C98.0486 8.13295 97.5419 9.48548 97.0157 11.089C96.588 12.3923 96.2901 13.2736 96.2901 13.2736C96.2901 13.2736 96.2958 9.75757 96.3008 8.42372C96.303 7.92064 95.9586 7.75295 95.8547 7.72262C95.3874 7.58679 94.4662 7.35976 94.0753 7.35976C93.5927 7.35976 93.4747 7.62965 93.4747 8.0235C93.4747 8.07515 93.3986 12.6527 93.3986 15.8536C93.3986 15.9928 93.3986 16.1444 93.3992 16.3057C93.1325 17.7769 92.2672 19.7739 91.3261 19.7739C90.3838 19.7739 89.9394 18.9391 89.9394 15.1231C89.9394 12.8969 90.0061 11.9288 90.0388 10.3187C90.0578 9.3912 90.0947 8.67911 90.0925 8.51757C90.0855 8.02196 89.2305 7.77207 88.8323 7.67976C88.4324 7.58679 88.085 7.55053 87.8137 7.56614C87.4296 7.58811 87.1578 7.8402 87.1578 8.18746C87.1578 8.37383 87.16 8.72768 87.16 8.72768C86.6654 7.94877 85.8698 7.40679 85.3405 7.24965C83.9147 6.82547 82.427 7.2013 81.3048 8.77471C80.413 10.0246 79.8753 11.4407 79.6637 13.4747C79.509 14.962 79.5595 16.4699 79.8345 17.7453C79.5022 19.1844 78.8856 19.7739 78.2102 19.7739C77.2297 19.7739 76.519 18.1708 76.6015 15.3976C76.6559 13.5736 77.0202 12.2936 77.4184 10.4417C77.5881 9.6523 77.4502 9.23911 77.1043 8.84306C76.7868 8.47976 76.1106 8.29405 75.1389 8.52218C74.4466 8.68504 73.4567 8.86021 72.551 8.99471C72.551 8.99471 72.6058 8.77603 72.6505 8.39097C72.8861 6.37119 70.6955 6.53492 69.9964 7.17998C69.5794 7.56526 69.2953 8.01954 69.1876 8.83625C69.0165 10.1325 70.0716 10.7439 70.0716 10.7439C69.7257 12.3316 68.877 14.4055 68.0009 15.9051C67.5317 16.7084 67.1729 17.3038 66.7094 17.9365C66.6943 15.3972 66.7108 12.8578 66.759 10.3189C66.7781 9.39142 66.8151 8.69823 66.8132 8.53647C66.8079 8.17427 66.5966 8.03713 66.1573 7.86394C65.7686 7.71053 65.3093 7.6046 64.8326 7.56723C64.2312 7.52064 63.8688 7.83998 63.8784 8.21801C63.8802 8.28943 63.8802 8.72768 63.8802 8.72768C63.3856 7.94877 62.59 7.40679 62.0607 7.24965C60.6349 6.82547 59.1473 7.2013 58.0251 8.77471C57.1334 10.0246 56.5495 11.7789 56.3839 13.4593C56.2299 15.0253 56.2582 16.3561 56.4683 17.4774C56.2417 18.6 55.5898 19.7741 54.853 19.7741C53.9107 19.7741 53.3746 18.9391 53.3746 15.1231C53.3746 12.8969 53.4413 11.9288 53.4742 10.3187C53.4932 9.39142 53.5299 8.67911 53.5279 8.51757C53.5209 8.02196 52.6656 7.77229 52.2675 7.67976C51.8512 7.58306 51.4917 7.54789 51.2155 7.56833C50.8514 7.59537 50.5952 7.92218 50.5952 8.16592V8.72768C50.1005 7.94877 49.3049 7.40679 48.7756 7.24965C47.3499 6.82547 45.8706 7.20745 44.74 8.77471C44.003 9.79647 43.4061 10.9292 43.099 13.4369C43.0102 14.1615 42.9709 14.8404 42.9762 15.4745C42.6823 17.2758 41.3837 19.3519 40.3218 19.3519C39.7004 19.3519 39.1084 18.144 39.1084 15.5701C39.1084 12.1415 39.3203 7.25976 39.3562 6.78943C39.3562 6.78943 40.698 6.76657 40.9577 6.7635C41.6272 6.75602 42.2333 6.77207 43.1249 6.72613C43.572 6.7035 44.0028 5.09536 43.5413 4.89646C43.332 4.80635 41.8538 4.72766 41.2677 4.71514C40.775 4.70415 39.4032 4.60217 39.4032 4.60217C39.4032 4.60217 39.5262 1.36194 39.555 1.01974C39.5791 0.734245 39.2106 0.587432 38.9996 0.49842C38.4859 0.280837 38.0263 0.176441 37.4817 0.0639135C36.7289 -0.0916914 36.3875 0.0606168 36.3209 0.696883C36.2204 1.66282 36.1684 4.49206 36.1684 4.49206C35.6161 4.49206 33.7292 4.38393 33.1769 4.38393C32.6636 4.38393 32.1095 6.5958 32.8193 6.62306C33.6358 6.6547 35.0587 6.6824 36.0019 6.71053C36.0019 6.71053 35.9598 11.6727 35.9598 13.2051C35.9598 13.3677 35.9607 13.5248 35.9616 13.6771C35.4424 16.3881 33.6138 17.8528 33.6138 17.8528C34.0065 16.0591 33.2043 14.7121 31.7594 13.5719C31.2271 13.1519 30.1762 12.3565 29.0004 11.4848C29.0004 11.4848 29.6813 10.8123 30.2854 9.45933C30.7131 8.50064 30.7318 7.40416 29.6813 7.16218C27.9458 6.76218 26.515 8.03932 26.0881 9.40284C25.7573 10.4591 25.9337 11.2426 26.5816 12.0567C26.6288 12.1163 26.6804 12.1771 26.733 12.2382C26.3415 12.9947 25.8032 14.0134 25.3474 14.8033C24.0821 16.9967 23.1264 18.7312 22.4041 18.7312C21.8268 18.7312 21.8344 16.9699 21.8344 15.3209C21.8344 13.8993 21.9393 11.762 22.0231 9.54944C22.0507 8.81757 21.6853 8.40064 21.0733 8.02306C20.7013 7.79361 19.9074 7.34262 19.4477 7.34262C18.7593 7.34262 16.7738 7.43646 14.8979 12.8738C14.6614 13.5591 14.1968 14.8079 14.1968 14.8079L14.237 8.26921C14.237 8.11581 14.1554 7.96768 13.9687 7.86636C13.6526 7.69427 12.8083 7.34262 12.0575 7.34262C11.6999 7.34262 11.5212 7.50921 11.5212 7.84152L11.4558 18.0714C11.4558 18.8488 11.476 19.7556 11.5528 20.1521C11.6291 20.549 11.753 20.8721 11.9061 21.0642C12.0595 21.2561 12.2365 21.4027 12.5284 21.4629C12.8002 21.5189 14.2883 21.7104 14.3657 21.1407C14.4583 20.4576 14.462 19.7191 15.2434 16.9644C16.4599 12.6756 18.0458 10.5833 18.7916 9.83999C18.9221 9.71032 19.0708 9.70241 19.0636 9.91494C19.032 10.8552 18.9199 13.2051 18.8447 15.2007C18.6426 20.5424 19.6124 21.5326 20.9985 21.5326C22.0588 21.5326 23.5535 20.4769 25.1556 17.8049C26.0484 16.3157 26.9369 14.8242 27.8214 13.3301C28.3068 13.7804 28.8519 14.2651 29.3964 14.7829C30.662 15.9864 31.0775 17.1301 30.8018 18.215C30.5912 19.0442 29.7969 19.8989 28.3836 19.0684C27.9717 18.826 27.7958 18.6385 27.3816 18.3653C27.1592 18.2187 26.8194 18.1747 26.6156 18.3286C26.0866 18.7282 25.7839 19.2367 25.611 19.8662C25.443 20.4787 26.0552 20.8024 26.69 21.0857C27.2364 21.3295 28.411 21.5504 29.1599 21.5754C32.0784 21.6732 34.4164 20.1635 36.044 16.2692C36.3353 19.6325 37.5751 21.5356 39.7294 21.5356C41.1696 21.5356 42.6136 19.6704 43.2451 17.8354C43.4263 18.5833 43.6948 19.2339 44.0414 19.784C45.7012 22.4192 48.9213 21.8521 50.5388 19.6143C51.0389 18.9229 51.115 18.6745 51.115 18.6745C51.3511 20.7873 53.0493 21.5255 54.0214 21.5255C55.1105 21.5255 56.2347 21.0097 57.0228 19.2321C57.1152 19.4251 57.2161 19.6095 57.3262 19.784C58.986 22.4192 62.2063 21.8521 63.8238 19.6143C63.9002 19.5093 63.9664 19.4143 64.0241 19.3286L64.0715 20.7165L62.5823 22.0851C60.0861 24.3774 58.19 26.1159 58.0505 28.1407C57.8728 30.7225 59.9615 31.682 61.5439 31.8078C63.2213 31.9412 64.6604 31.0119 65.5435 29.7115C66.3209 28.5666 66.8298 26.1029 66.7923 23.6697C66.7776 22.6952 66.7528 21.4563 66.7337 20.1282C67.6101 19.1086 68.5974 17.8198 69.5064 16.3117C70.4969 14.6679 71.5586 12.4604 72.1022 10.7424C72.1022 10.7424 73.0245 10.7505 74.009 10.6859C74.3238 10.6653 74.4143 10.7299 74.356 10.9609C74.2858 11.2404 73.1123 15.7752 74.1834 18.7961C74.9162 20.8642 76.5686 21.5293 77.5482 21.5293C78.6952 21.5293 79.7922 20.6616 80.3801 19.3732C80.4511 19.5167 80.525 19.6556 80.606 19.7842C82.2658 22.4194 85.4747 21.8486 87.1036 19.6143C87.4713 19.1101 87.6799 18.6745 87.6799 18.6745C88.0293 20.8613 89.7266 21.5367 90.6988 21.5367C91.7113 21.5367 92.6725 21.1207 93.4521 19.2721C93.485 20.0862 93.5361 20.7517 93.617 20.9613C93.6664 21.0899 93.9542 21.2508 94.1635 21.3286C95.09 21.6728 96.0345 21.5101 96.3842 21.4394C96.6263 21.3901 96.8152 21.1954 96.8411 20.693C96.9091 19.3732 96.8674 17.1558 97.2666 15.5077C97.9367 12.7422 98.5621 11.6694 98.8587 11.1385C99.0247 10.8407 99.2118 10.7916 99.2186 11.1066C99.2327 11.744 99.2643 13.6149 99.524 16.1292C99.7148 17.978 99.9693 19.071 100.165 19.4172C100.724 20.4062 101.414 20.453 101.976 20.453C102.333 20.453 103.081 20.3541 103.014 19.7246C102.981 19.4178 103.038 17.5216 103.699 14.7969C104.131 13.0176 104.85 11.4101 105.11 10.8222C105.206 10.6055 105.25 10.7763 105.248 10.8097C105.194 12.0349 105.071 16.0429 105.569 18.235C106.245 21.2044 108.198 21.5367 108.879 21.5367C110.333 21.5367 111.521 20.429 111.922 17.5143C112.018 16.8128 111.875 16.2712 111.447 16.2712Z" fill="white"/>
</svg>
