<svg width="18" height="19" viewBox="0 0 18 19" fill="none" xmlns="http://www.w3.org/2000/svg">
<path fill-rule="evenodd" clip-rule="evenodd" d="M18 9.15C18 14.2034 13.9706 18.3 9 18.3C4.02944 18.3 0 14.2034 0 9.15C0 4.09659 4.02944 0 9 0C13.9706 0 18 4.09659 18 9.15ZM9.03684 4.23405C9.3732 4.23405 9.64587 4.50672 9.64587 4.84308V8.56833H13.29C13.6319 8.56833 13.9091 8.84555 13.9091 9.18751C13.9091 9.52948 13.6319 9.80669 13.29 9.80669H9.64587V13.5319C9.64587 13.8683 9.3732 14.1409 9.03684 14.1409C8.70049 14.1409 8.42781 13.8683 8.42781 13.5319V9.80669H4.78385C4.44189 9.80669 4.16467 9.52948 4.16467 9.18751C4.16467 8.84555 4.44189 8.56833 4.78385 8.56833H8.42781V4.84308C8.42781 4.50672 8.70049 4.23405 9.03684 4.23405Z" fill="white"/>
</svg>
