<svg width="20" height="20" viewBox="0 0 20 20" fill="none" xmlns="http://www.w3.org/2000/svg">
<path d="M19.5625 18.549L14.1359 13.0937C15.4332 11.5284 16.0777 9.52356 15.9355 7.49553C15.7933 5.4675 14.8753 3.5722 13.3722 2.20328C11.8692 0.834362 9.89656 0.0970505 7.8641 0.144489C5.83165 0.191927 3.89558 1.02047 2.45802 2.45802C1.02047 3.89558 0.191927 5.83165 0.144489 7.8641C0.0970505 9.89655 0.834363 11.8692 2.20328 13.3722C3.5722 14.8753 5.4675 15.7933 7.49553 15.9355C9.52356 16.0777 11.5284 15.4332 13.0937 14.1359L18.549 19.5625L19.5625 18.549ZM1.59372 8.06247C1.59372 6.78307 1.9731 5.5324 2.6839 4.46862C3.39469 3.40484 4.40497 2.57573 5.58698 2.08612C6.76899 1.59652 8.06964 1.46841 9.32446 1.71801C10.5793 1.96761 11.7319 2.5837 12.6366 3.48837C13.5412 4.39304 14.1573 5.54566 14.4069 6.80048C14.6565 8.05529 14.5284 9.35594 14.0388 10.538C13.5492 11.72 12.7201 12.7302 11.6563 13.441C10.5925 14.1518 9.34187 14.5312 8.06247 14.5312C6.34685 14.5312 4.7015 13.8497 3.48837 12.6366C2.27524 11.4234 1.59372 9.77809 1.59372 8.06247Z" fill="black"/>
</svg>
