<svg width="24" height="24" viewBox="0 0 24 24" fill="none" xmlns="http://www.w3.org/2000/svg">
<mask id="mask0_3661_67" style="mask-type:luminance" maskUnits="userSpaceOnUse" x="2" y="2" width="20" height="20">
<path d="M11 13L15.74 5.50001C16.03 5.67001 16.31 5.85001 16.57 6.05001L19.09 5.04001C19.25 4.98001 19.52 5.01001 19.6 5.17001L21.67 8.75001C21.77 8.92001 21.73 9.20001 21.6 9.32001L19.43 11C19.48 11.33 19.5 11.66 19.5 12L11 13Z" fill="white"/>
<path d="M10.6339 11.634L19.4991 11.9889C19.4968 12.3251 19.4809 12.6576 19.4377 12.9827L21.5724 14.6601C21.7044 14.7687 21.8134 15.0175 21.7148 15.1668L19.6495 18.7495C19.5522 18.9211 19.2898 19.0264 19.1208 18.9738L16.5809 17.9346C16.3201 18.1429 16.0443 18.3252 15.7499 18.4952L10.6339 11.634Z" fill="white"/>
<path d="M11.6339 10.634L15.7591 18.4889C15.4668 18.6551 15.1709 18.8076 14.8677 18.9327L14.4824 21.6201C14.4544 21.7887 14.2934 22.0075 14.1148 21.9968L9.97947 21.9995C9.78225 22.0011 9.55976 21.8264 9.52084 21.6538L9.15091 18.9346C8.84012 18.8129 8.54434 18.6652 8.24989 18.4952L11.6339 10.634Z" fill="white"/>
<path d="M13 11L8.26 18.5C7.97 18.33 7.69 18.15 7.43 17.95L4.91 18.96C4.75 19.02 4.48 18.99 4.4 18.83L2.33 15.25C2.23 15.08 2.27 14.8 2.4 14.68L4.57 13C4.52 12.67 4.5 12.34 4.5 12L13 11Z" fill="white"/>
<path d="M13.3659 12.366L4.5007 12.0111C4.50293 11.6749 4.51881 11.3424 4.56202 11.0173L2.42733 9.33987C2.29537 9.23131 2.18635 8.98248 2.28492 8.8332L4.35029 5.25053C4.44751 5.07893 4.71 4.97357 4.87892 5.02615L7.41884 6.06543C7.67963 5.85712 7.95542 5.6748 8.24987 5.5048L13.3659 12.366Z" fill="white"/>
<path d="M12.3659 13.366L8.2407 5.51108C8.53293 5.34493 8.82881 5.19244 9.13202 5.06727L9.51733 2.37989C9.54537 2.21133 9.70635 1.9925 9.88492 2.00322L14.0203 2.00054C14.2175 1.99894 14.44 2.17358 14.4789 2.34617L14.8488 5.06544C15.1596 5.18714 15.4554 5.33482 15.7499 5.50482L12.3659 13.366Z" fill="white"/>
<path d="M12 15.5C13.933 15.5 15.5 13.933 15.5 12C15.5 10.067 13.933 8.5 12 8.5C10.067 8.5 8.5 10.067 8.5 12C8.5 13.933 10.067 15.5 12 15.5Z" fill="black"/>
</mask>
<g mask="url(#mask0_3661_67)">
<path d="M24 0H0V24H24V0Z" fill="#1E2A37"/>
</g>
</svg>
