<svg width="168" height="48" viewBox="0 0 168 48" fill="none" xmlns="http://www.w3.org/2000/svg">
<g clip-path="url(#clip0_3661_894)">
<path d="M8.66998 0.165482C5.23263 1.60286 1.4544 5.65846 0.26101 10.753C-1.25055 17.2058 5.0385 19.9353 5.55474 19.0416C6.1618 17.9901 4.42782 17.6347 4.07083 14.2863C3.60953 9.96172 5.62351 5.12962 8.15834 3.00936C8.62885 2.6152 8.60681 3.16374 8.60681 4.17772C8.60681 5.99119 8.50646 22.2714 8.50646 25.6691C8.50646 30.2663 8.31628 31.7181 7.97442 33.1529C7.62861 34.6064 7.07189 35.5888 7.49338 35.9672C7.96455 36.3903 9.97623 35.3835 11.1407 33.7612C12.5371 31.8154 13.026 29.478 13.1138 26.9406C13.2198 23.8812 13.2152 19.0265 13.2198 16.2575C13.2237 13.7181 13.2626 6.28189 13.175 1.81144C13.1537 0.714352 10.1075 -0.435944 8.66998 0.165482Z" fill="#1E2A37"/>
<path d="M130.745 21.6812C130.634 24.0714 130.104 25.9394 129.446 27.2572C128.173 29.8084 125.531 30.6004 124.409 26.9334C123.798 24.9343 123.769 21.5958 124.208 18.8061C124.656 15.9645 125.905 13.8183 127.974 14.0117C130.015 14.2032 130.97 16.828 130.745 21.6815V21.6812ZM96.3453 36.5102C96.3176 40.4814 95.6915 43.9631 94.3491 44.9748C92.4446 46.4089 89.8851 45.3328 90.4152 42.4351C90.8841 39.8707 93.102 37.2519 96.3508 34.0519C96.3508 34.0519 96.3574 34.7818 96.3453 36.5102ZM95.8254 21.6578C95.7089 23.8349 95.1437 26.0215 94.5267 27.2572C93.2534 29.8084 90.5922 30.606 89.4893 26.9334C88.7352 24.4239 88.9158 21.1766 89.2886 19.1303C89.7729 16.4753 90.9469 14.0121 93.0543 14.0121C95.1035 14.0121 96.1143 16.2565 95.8254 21.6578ZM75.8978 21.625C75.7728 23.9302 75.3224 25.8573 74.5995 27.2572C73.2913 29.791 70.7032 30.5945 69.5621 26.9334C68.7392 24.2935 69.0192 20.6941 69.3614 18.7496C69.8694 15.864 71.1414 13.8183 73.1271 14.0121C75.1667 14.2111 76.1581 16.828 75.8978 21.625ZM167.22 24.3178C166.722 24.3178 166.494 24.8308 166.306 25.6941C165.653 28.6976 164.967 29.3752 164.082 29.3752C163.093 29.3752 162.205 27.8885 161.976 24.912C161.797 22.5713 161.826 18.2625 162.055 13.9763C162.102 13.0957 161.859 12.2242 159.493 11.3663C158.475 10.9971 156.995 10.4535 156.258 12.2292C154.176 17.2462 153.361 21.2292 153.169 22.8466C153.159 22.9303 153.056 22.9477 153.039 22.752C152.916 21.4562 152.643 19.101 152.609 14.1536C152.603 13.1883 152.398 12.3668 151.331 11.6941C150.638 11.2572 148.535 10.4853 147.778 11.404C147.122 12.1549 146.362 14.1763 145.573 16.5728C144.931 18.5206 144.484 19.8378 144.484 19.8378C144.484 19.8378 144.493 14.583 144.5 12.5895C144.504 11.8376 143.987 11.587 143.831 11.5417C143.13 11.3387 141.748 10.9994 141.162 10.9994C140.438 10.9994 140.261 11.4027 140.261 11.9913C140.261 12.0685 140.147 18.9099 140.147 23.6937C140.147 23.9016 140.147 24.1282 140.148 24.3693C139.748 26.5681 138.45 29.5526 137.038 29.5526C135.625 29.5526 134.958 28.305 134.958 22.6019C134.958 19.2748 135.058 17.8279 135.107 15.4215C135.136 14.0354 135.191 12.9712 135.188 12.7297C135.177 11.989 133.895 11.6156 133.298 11.4776C132.698 11.3387 132.177 11.2845 131.77 11.3078C131.194 11.3406 130.786 11.7174 130.786 12.2364C130.786 12.5149 130.789 13.0438 130.789 13.0438C130.047 11.8797 128.854 11.0697 128.06 10.8348C125.921 10.2009 123.69 10.7625 122.006 13.114C120.669 14.982 119.862 17.0984 119.545 20.1383C119.313 22.3611 119.388 24.6147 119.801 26.5208C119.302 28.6716 118.378 29.5526 117.365 29.5526C115.894 29.5526 114.828 27.1567 114.951 23.0121C115.033 20.2862 115.58 18.3731 116.177 15.6055C116.431 14.4256 116.224 13.8081 115.706 13.2162C115.229 12.6732 114.215 12.3957 112.757 12.7366C111.719 12.98 110.234 13.2418 108.876 13.4428C108.876 13.4428 108.958 13.116 109.025 12.5405C109.378 9.52191 106.092 9.76662 105.044 10.7307C104.418 11.3065 103.992 11.9854 103.831 13.206C103.574 15.1433 105.157 16.0571 105.157 16.0571C104.638 18.43 103.365 21.5294 102.051 23.7705C101.347 24.9711 100.809 25.8609 100.113 26.8066C100.091 23.0115 100.115 19.2163 100.188 15.4219C100.216 14.0357 100.272 12.9997 100.269 12.758C100.261 12.2167 99.9442 12.0117 99.2851 11.7529C98.7021 11.5236 98.0131 11.3653 97.2981 11.3094C96.3959 11.2398 95.8524 11.7171 95.8669 12.282C95.8695 12.3888 95.8695 13.0438 95.8695 13.0438C95.1275 11.8797 93.9341 11.0697 93.1402 10.8348C91.0015 10.2009 88.7701 10.7625 87.0868 13.114C85.7493 14.982 84.8734 17.6039 84.625 20.1153C84.394 22.4557 84.4364 24.4446 84.7516 26.1204C84.4118 27.7982 83.4339 29.5529 82.3287 29.5529C80.9152 29.5529 80.111 28.305 80.111 22.6019C80.111 19.2748 80.2111 17.8279 80.2604 15.4215C80.289 14.0357 80.344 12.9712 80.341 12.7297C80.3305 11.989 79.0476 11.6159 78.4504 11.4776C77.8259 11.3331 77.2867 11.2805 76.8724 11.3111C76.3262 11.3515 75.9419 11.8399 75.9419 12.2042V13.0438C75.2 11.8797 74.0066 11.0697 73.2127 10.8348C71.074 10.2009 68.855 10.7717 67.1592 13.114C66.0537 14.6411 65.1584 16.334 64.6978 20.0818C64.5645 21.1648 64.5056 22.1794 64.5135 23.1271C64.0726 25.8192 62.1248 28.9219 60.5319 28.9219C59.5998 28.9219 58.7118 27.1166 58.7118 23.27C58.7118 18.1459 59.0296 10.8499 59.0836 10.147C59.0836 10.147 61.0962 10.1128 61.4858 10.1082C62.49 10.0971 63.3991 10.121 64.7366 10.0524C65.4071 10.0186 66.0533 7.61516 65.3611 7.31789C65.0472 7.18322 62.8299 7.06563 61.9507 7.04691C61.2117 7.03048 59.154 6.87807 59.154 6.87807C59.154 6.87807 59.3386 2.03547 59.3817 1.52404C59.4178 1.09736 58.8651 0.877942 58.5486 0.744913C57.778 0.419729 57.0887 0.263707 56.2717 0.095531C55.1425 -0.137025 54.6305 0.0906039 54.5305 1.04152C54.3798 2.48514 54.3018 6.71351 54.3018 6.71351C53.4733 6.71351 50.643 6.5519 49.8145 6.5519C49.0446 6.5519 48.2135 9.85761 49.2782 9.89834C50.5028 9.94564 52.6372 9.98703 54.0521 10.0291C54.0521 10.0291 53.9889 17.4452 53.9889 19.7353C53.9889 19.9784 53.9902 20.2132 53.9915 20.4409C53.2127 24.4925 50.4699 26.6814 50.4699 26.6814C51.0589 24.0008 49.8557 21.9876 47.6884 20.2835C46.8898 19.6558 45.3134 18.4671 43.5498 17.1644C43.5498 17.1644 44.5711 16.1593 45.4773 14.1372C46.1189 12.7044 46.1469 11.0657 44.5711 10.7041C41.9679 10.1063 39.8216 12.015 39.1813 14.0528C38.6852 15.6314 38.9497 16.8024 39.9217 18.0191C39.9924 18.1081 40.0697 18.1991 40.1487 18.2904C39.5614 19.421 38.7539 20.9434 38.0702 22.1239C36.1724 25.402 34.7388 27.9943 33.6553 27.9943C32.7893 27.9943 32.8008 25.362 32.8008 22.8975C32.8008 20.7729 32.9581 17.5786 33.0838 14.2719C33.1253 13.1781 32.5771 12.555 31.6591 11.9907C31.1011 11.6478 29.9103 10.9737 29.2207 10.9737C28.1882 10.9737 25.2099 11.114 22.396 19.2403C22.0413 20.2645 21.3444 22.1308 21.3444 22.1308L21.4046 12.3586C21.4046 12.1293 21.2822 11.9079 21.0022 11.7565C20.5281 11.4993 19.2617 10.9737 18.1354 10.9737C17.5991 10.9737 17.331 11.2227 17.331 11.7194L17.2329 27.0083C17.2329 28.17 17.2632 29.5253 17.3783 30.1179C17.4928 30.7111 17.6787 31.1939 17.9084 31.481C18.1384 31.7678 18.4039 31.9869 18.8419 32.0769C19.2495 32.1606 21.4816 32.4467 21.5978 31.5953C21.7366 30.5744 21.7422 29.4708 22.9142 25.3538C24.739 18.944 27.1179 15.817 28.2366 14.7061C28.4323 14.5123 28.6554 14.5005 28.6446 14.8181C28.5972 16.2233 28.4291 19.7353 28.3162 22.7178C28.0132 30.7012 29.4678 32.181 31.5469 32.181C33.1374 32.181 35.3794 30.6033 37.7826 26.6098C39.1217 24.3843 40.4546 22.1551 41.7813 19.9222C42.5095 20.5952 43.3271 21.3195 44.1437 22.0934C46.0422 23.8921 46.6654 25.6014 46.2518 27.2227C45.9359 28.4621 44.7445 29.7395 42.6246 28.4982C42.0067 28.1359 41.7428 27.8557 41.1216 27.4474C40.788 27.2283 40.2783 27.1626 39.9727 27.3926C39.179 27.9897 38.725 28.7498 38.4657 29.6905C38.2137 30.606 39.132 31.0898 40.0842 31.5132C40.9038 31.8775 42.6657 32.2076 43.789 32.245C48.1668 32.3912 51.6739 30.1349 54.1152 24.3148C54.5522 29.3414 56.4119 32.1856 59.6432 32.1856C61.8036 32.1856 63.9696 29.3979 64.9169 26.6555C65.1887 27.7733 65.5914 28.7455 66.1113 29.5677C68.601 33.506 73.4311 32.6586 75.8574 29.3141C76.6076 28.2807 76.7217 27.9096 76.7217 27.9096C77.0758 31.0671 79.6231 32.1705 81.0813 32.1705C82.715 32.1705 84.4012 31.3995 85.5834 28.7429C85.722 29.0313 85.8733 29.3069 86.0385 29.5677C88.5282 33.506 93.3587 32.6586 95.7849 29.3141C95.8994 29.1571 95.9988 29.0152 96.0853 28.8871L96.1564 30.9614L93.9226 33.0067C90.1783 36.4327 87.3342 39.0309 87.1249 42.057C86.8584 45.9155 89.9914 47.3496 92.365 47.5375C94.8811 47.7369 97.0398 46.3481 98.3645 44.4046C99.5306 42.6936 100.294 39.0115 100.238 35.375C100.216 33.9186 100.178 32.067 100.15 30.0821C101.464 28.5583 102.945 26.6322 104.309 24.3782C105.795 21.9216 107.387 18.6225 108.202 16.0548C108.202 16.0548 109.586 16.067 111.063 15.9704C111.535 15.9395 111.671 16.0361 111.583 16.3813C111.478 16.7991 109.718 23.5764 111.324 28.0912C112.424 31.1821 114.902 32.176 116.372 32.176C118.092 32.176 119.737 30.8793 120.619 28.9538C120.726 29.1683 120.837 29.3759 120.958 29.568C123.448 33.5063 128.261 32.6533 130.705 29.3141C131.256 28.5606 131.569 27.9096 131.569 27.9096C132.093 31.1778 134.639 32.1872 136.097 32.1872C137.616 32.1872 139.058 31.5654 140.227 28.8027C140.277 30.0193 140.353 31.0139 140.475 31.3273C140.549 31.5194 140.98 31.7599 141.294 31.8762C142.684 32.3905 144.101 32.1475 144.625 32.0417C144.989 31.9681 145.272 31.6771 145.311 30.9262C145.413 28.9538 145.35 25.6399 145.949 23.1767C146.954 19.0436 147.892 17.4403 148.337 16.6467C148.586 16.2016 148.867 16.1284 148.877 16.5991C148.898 17.5517 148.946 20.3479 149.335 24.1056C149.621 26.8687 150.003 28.5021 150.297 29.0195C151.135 30.4976 152.17 30.5675 153.013 30.5675C153.549 30.5675 154.671 30.4197 154.57 29.479C154.521 29.0205 154.607 26.1864 155.598 22.1144C156.245 19.4551 157.325 17.0527 157.714 16.1741C157.858 15.8502 157.924 16.1054 157.922 16.1553C157.84 17.9865 157.656 23.9765 158.403 27.2526C159.417 31.6906 162.347 32.1872 163.368 32.1872C165.548 32.1872 167.331 30.5317 167.932 26.1756C168.077 25.1271 167.862 24.3178 167.22 24.3178Z" fill="#1E2A37"/>
</g>
<defs>
<clipPath id="clip0_3661_894">
<rect width="168" height="47.8248" fill="white"/>
</clipPath>
</defs>
</svg>
