<svg width="119" height="119" viewBox="0 0 119 119" fill="none" xmlns="http://www.w3.org/2000/svg">
<g clip-path="url(#clip0_3661_500)">
<circle cx="59.5" cy="59.5" r="57" stroke="url(#paint0_linear_3661_500)" stroke-width="5"/>
<mask id="mask0_3661_500" style="mask-type:alpha" maskUnits="userSpaceOnUse" x="14" y="14" width="91" height="91">
<circle cx="59.5" cy="59.5" r="44.7784" fill="#C4C4C4"/>
</mask>
<g mask="url(#mask0_3661_500)">
<path fill-rule="evenodd" clip-rule="evenodd" d="M93.3141 124.838C91.9671 119.612 90.7277 117.396 88.3344 115.579C86.0955 113.879 82.8279 112.453 78.0597 111.41C73.0932 110.542 72.952 107.96 71.7067 103.81C71.3438 102.563 69.5431 102.231 68.7669 103.13C68.6571 103.012 68.543 102.904 68.4244 102.806C68.5305 102.211 67.6642 100.505 67.6935 99.9361C67.9949 93.9965 66.0524 91.0135 61.2044 89.9043C60.1501 89.6636 52.9878 89.5217 51.9599 89.8056C47.4653 91.0487 43.0409 94.9945 43.7184 99.7481C42.307 101.593 40.9264 102.718 38.7497 103.312C33.9061 103.927 29.0627 104.474 24.2176 104.942C14.7334 106.43 5.84111 111.452 -0.236508 118.774C-0.797108 119.45 -0.959023 120.368 -0.464273 121.088C-0.851834 122.749 -3.03343 126.776 -1.31688 127.914C-4.13963 134.667 -10.6342 147.718 -10.6464 151.447C-10.6976 167.111 -9.00583 187.5 6.44817 196.168C7.06694 196.777 7.15547 197.45 7.4234 198.355C8.10282 201.207 10.5704 203.245 13.2711 203.078C26.5755 203.374 39.4616 201.75 52.7661 201.672C58.6341 201.637 65.6902 202.514 70.787 203.097C75.8837 203.681 81.0288 203.164 85.9199 201.672C86.3326 202.322 87.1667 202.7 88.0125 202.514C93.0829 201.506 97.1838 198.38 100.755 194.964C101.847 192.979 106.109 187.321 104.415 185.351C105.951 178.858 105.87 171.88 103.142 165.697C103.528 164.564 102.823 163.318 103.142 162.147C103.372 161.301 103.962 160.95 104.258 160.112C104.676 158.931 104.222 157.347 103.751 156.143C103.559 155.543 104.106 154.897 104.258 154.284C104.98 151.395 103.328 151.65 102.136 149.718C102.154 149.713 102.464 148.333 102.462 148.341C102.645 147.356 102.188 146.095 101.789 145.274C101.52 144.718 100.942 144.371 100.369 144.434C100.947 142.473 101.677 140.841 102.462 138.952C103.851 135.622 105.61 132.433 107.604 129.418C108.421 128.184 107.324 126.754 106.002 126.67C101.724 126.398 97.4926 125.782 93.3141 124.838Z" fill="#F4C2C2"/>
<path fill-rule="evenodd" clip-rule="evenodd" d="M80.8282 150.023C79.1169 149.351 77.2745 148.98 75.4227 148.836C76.4192 148.662 77.4194 148.493 78.4276 148.407C79.1308 148.346 79.7827 148.352 80.3117 148.886C80.6643 149.241 80.8297 149.699 81.0616 150.12C80.9855 150.086 80.9065 150.054 80.8282 150.023ZM99.1944 143.747C96.3921 143.89 93.5869 144.557 91.0517 145.764C90.0142 146.258 89.0748 146.973 88.7997 148.148C88.6599 148.748 88.6943 149.369 88.7682 149.975C88.8238 150.434 88.8377 151.02 89.2372 151.331C89.3045 151.383 89.3777 151.423 89.453 151.453C88.518 151.875 87.6276 152.382 86.8359 152.905C86.113 153.383 85.3696 154.119 85.0353 154.949C85.0075 154.855 84.9797 154.767 84.9519 154.683C84.3834 153.001 83.5068 151.623 82.1262 150.697C82.3706 150.587 82.5388 150.327 82.4606 149.969C82.1328 148.47 80.7492 147.168 79.1864 147.261C77.475 147.361 75.6371 147.984 74.0896 148.772C73.5255 148.759 72.9629 148.767 72.4068 148.791C72.3109 148.794 72.3153 148.925 72.4068 148.936C72.8582 148.993 73.3089 149.056 73.7604 149.13C74.8337 149.302 75.9034 149.52 76.9497 149.791C78.2045 150.116 79.5032 150.441 80.6768 151.009C82.9515 152.112 84.3599 154.994 84.0709 157.503C84.0227 157.914 83.8639 159.157 83.2932 159.029C82.811 158.921 82.6193 157.914 82.451 157.541C81.9996 156.551 81.1867 155.905 80.2114 155.467C79.0657 154.952 77.8401 154.604 76.6526 154.199C75.9802 153.969 75.3078 153.738 74.634 153.51C73.9448 153.273 73.2892 152.947 72.5553 153.112C72.1112 153.213 72.06 153.742 72.3095 154.045C72.6878 154.507 73.2504 154.643 73.7962 154.833C74.5162 155.084 75.2354 155.335 75.9539 155.585C77.0653 155.971 78.2294 156.298 79.3129 156.771L79.2793 156.848C79.1908 156.824 79.0869 156.911 79.1044 157.02C79.2669 158.021 79.4922 159.177 79.242 160.179C79.0444 160.974 78.3464 161.854 77.4414 161.62C77.5833 161.49 77.636 161.266 77.5401 161.059C77.1816 160.292 72.4822 157.264 72.0637 158.389C72.0498 158.429 72.0929 158.458 72.1266 158.452C72.4836 158.378 73.0821 158.987 73.3682 159.18C73.7809 159.458 74.1994 159.73 74.6076 160.017C75.0547 160.329 75.49 160.657 75.9151 160.996C76.2495 161.262 76.5012 161.538 76.8846 161.673C76.6833 161.769 76.5246 161.947 76.4565 162.174C76.2831 162.766 75.9495 163.269 75.37 163.53C74.762 163.802 74.0772 163.63 73.4377 163.698C72.5656 163.785 71.8054 164.199 71.1703 164.792C69.8357 166.038 69.167 168.235 67.3013 168.824C66.1862 169.175 64.9497 168.953 63.8215 168.794C62.5616 168.616 61.3346 168.475 60.0651 168.661C58.8506 168.839 57.7019 169.26 56.5919 169.773C55.5515 170.254 54.4013 170.798 53.4787 171.515C53.2885 170.929 53.0968 170.35 52.9512 169.751C52.6088 168.336 52.4229 166.895 52.3783 165.441C52.3366 164.058 52.4134 162.667 52.5327 161.29C52.5912 160.601 52.6841 159.916 52.7427 159.228C52.758 159.055 52.7895 158.869 52.8122 158.684C54.4606 157.711 56.1917 156.966 57.9367 156.199C57.9411 156.197 57.9462 156.194 57.9506 156.193C58.0048 156.168 58.0575 156.145 58.1116 156.121C58.1101 156.118 58.1079 156.115 58.105 156.112C58.3048 155.99 58.4438 155.828 58.5272 155.645C61.0419 153.977 63.1447 151.699 64.7119 149.042C65.3689 147.929 66.0011 146.773 66.8601 145.798C67.7754 144.757 68.8619 144.139 70.2067 143.817C71.779 143.44 73.3989 143.214 75.0093 143.085C75.8895 143.016 76.8721 142.907 77.8306 142.913C78.4986 142.917 79.152 142.974 79.7519 143.139C80.6409 143.384 81.1604 144.06 81.7179 144.743C82.2513 145.399 82.7818 146.056 83.2793 146.74C83.7505 147.387 84.1961 148.057 84.5824 148.759C84.8143 149.18 85.0294 149.613 85.2101 150.059C85.2738 150.217 85.3572 150.397 85.396 150.561C85.434 150.726 85.3631 150.901 85.5489 150.901C84.7836 150.912 84.7909 152.135 85.5518 152.09C88.529 151.917 84.2641 146.103 83.6407 145.292C82.7583 144.145 81.8482 142.648 80.4353 142.114C80.4148 142.107 80.3936 142.099 80.3731 142.093C80.7843 141.703 81.1092 141.236 81.4201 140.761C81.7399 140.273 82.1218 139.713 82.2271 139.133C82.293 138.763 81.8343 138.553 81.6162 138.876C81.2994 139.348 81.1465 139.945 80.9102 140.463C80.6687 140.989 80.3753 141.485 80.1434 142.016C79.5851 141.844 78.9822 141.765 78.3684 141.739C79.1432 140.69 80.466 138.667 80.6255 138.408C81.3579 137.205 82.0552 135.965 82.7218 134.723C83.4417 133.377 84.0585 131.976 84.7477 130.615C85.1392 129.844 85.5335 129.066 85.9674 128.317C86.1174 128.061 86.2784 127.804 86.4606 127.571C86.4964 127.524 86.541 127.486 86.5827 127.442C86.631 127.416 86.6801 127.387 86.7079 127.371C86.9581 127.228 87.0466 126.894 87.2222 126.681C87.5039 126.34 87.8346 126.3 88.2582 126.295C89.1611 126.286 90.0669 126.321 90.9683 126.346C92.2926 126.383 93.6162 126.435 94.939 126.505C95.3393 126.527 95.738 126.549 96.139 126.573C98.0632 126.688 99.986 126.838 101.904 127.022C103.602 127.184 105.299 127.449 106.998 127.575C104.697 133.042 102.147 138.409 99.2595 143.59C99.2302 143.642 99.2083 143.695 99.1944 143.747ZM86.4327 157.83C86.0618 158 85.7018 158.212 85.3667 158.453C85.4223 158.078 85.4362 157.682 85.4201 157.284C85.6974 157.581 86.0508 157.751 86.4327 157.83ZM102.27 148.427C102.243 148.43 102.218 148.444 102.206 148.47C101.693 149.529 101.907 150.712 102.745 151.542C103.184 151.976 104.141 152.464 104.11 153.176C104.084 153.751 103.458 154.234 103.191 154.708C102.942 155.15 102.849 155.636 103.049 156.115C103.303 156.729 104.016 156.974 104.26 157.576C104.569 158.342 104.067 159.265 103.715 159.932C103.387 160.548 102.963 161.165 102.682 161.818C100.797 162.794 99.1117 164.291 97.6616 165.811C96.0738 167.474 94.7122 169.429 92.1909 169.38C91.9392 169.375 91.7475 169.508 91.6327 169.692C90.931 169.725 90.2279 169.739 89.5262 169.742C88.2926 169.748 87.059 169.735 85.8269 169.697C85.7406 169.399 85.8042 168.993 85.7991 168.741C85.7838 167.929 85.7764 167.119 85.7421 166.307C85.7325 166.081 85.7238 165.854 85.7143 165.628C86.1576 166.431 87.0232 166.796 88.0095 166.741C89.5957 166.648 91.1907 166.388 92.7609 166.154C93.5884 166.032 94.4137 165.893 95.2376 165.744C95.9151 165.624 96.8699 165.655 97.3433 165.112C97.4545 164.985 97.4604 164.753 97.2855 164.668C96.8172 164.438 96.5224 164.566 96.0073 164.665C95.3802 164.787 94.751 164.903 94.1203 165.012C92.9094 165.222 91.6963 165.416 90.4796 165.588C89.7874 165.685 89.0931 165.781 88.3995 165.857C87.7936 165.923 87.1103 166.01 86.6215 165.555C85.6367 164.633 86.1891 163.088 86.8117 162.157C86.8242 162.138 86.8242 162.122 86.8198 162.105C87.4066 161.968 87.9926 161.808 88.5772 161.694C89.7011 161.478 90.8322 161.296 91.9656 161.133C94.293 160.801 96.6365 160.581 98.9771 160.36C99.5566 160.304 99.5624 159.392 98.9771 159.446C95.6144 159.754 92.2356 160.046 88.9189 160.694C88.087 160.855 87.2617 161.037 86.4408 161.243C86.053 161.339 85.6367 161.489 85.2306 161.494C85.2058 161.494 85.1809 161.494 85.156 161.492C84.3599 161.467 84.2444 160.786 84.6819 160.218C84.736 160.148 84.7916 160.079 84.8487 160.012C85.6213 159.09 86.5842 158.475 87.5771 157.838C88.6885 157.686 89.7969 157.349 90.8849 157.102C93.5716 156.489 96.2582 155.877 98.9464 155.266C99.4731 155.146 99.2493 154.335 98.7217 154.454C96.6811 154.917 94.6413 155.379 92.6007 155.842L89.614 156.519C89.0177 156.653 88.2721 156.924 87.5705 157.021C87.2244 157.069 86.8893 157.075 86.5864 157.004C85.6074 156.772 85.5584 155.549 85.9798 154.823C86.4532 154.006 87.3466 153.495 88.1397 153.034C89.5138 152.231 90.9764 151.654 92.4046 150.989C92.6577 150.933 92.9116 150.877 93.1648 150.822C94.6398 150.497 96.3241 150.338 97.7128 149.743C98.1284 149.566 97.9008 148.911 97.4896 148.92C96.4126 148.943 95.2859 149.326 94.233 149.554C93.0938 149.801 91.9531 150.047 90.8139 150.293C90.6991 150.318 90.0223 150.534 89.9206 150.487C89.8555 150.455 89.832 150.23 89.8108 150.081C89.7406 149.593 89.6901 149.079 89.7655 148.589C89.9323 147.49 90.8491 146.973 91.7768 146.551C93.8415 145.612 96.1068 145.025 98.3603 144.789C98.8798 144.735 99.3993 144.701 99.9217 144.685C100.535 144.666 101.04 144.557 101.351 145.162C101.839 146.115 102.109 147.34 102.27 148.427ZM99.4014 182.964C98.9515 181.407 99.0737 179.745 98.7656 178.157C98.6061 177.337 98.3888 176.525 98.1518 175.725C97.9608 175.079 97.6418 174.392 97.6052 173.718C97.603 173.672 97.6564 173.647 97.6923 173.667C98.3274 174.031 98.8147 174.817 99.1768 175.434C99.6107 176.172 99.9414 176.946 100.208 177.759C100.74 179.379 101.177 181.332 100.491 182.964C100.287 183.45 99.5697 183.547 99.4014 182.964ZM85.4948 162.343C85.8752 162.305 86.2557 162.233 86.6354 162.148C86.2103 162.562 85.8181 163.062 85.6001 163.615C85.5657 163.19 85.5226 162.766 85.4655 162.344C85.475 162.344 85.4852 162.344 85.4948 162.343ZM81.8401 194.75C81.1699 194.282 80.6812 193.628 80.1126 193.05C79.5529 192.482 80.4273 191.607 80.987 192.175C81.4721 192.668 81.8935 193.283 82.4642 193.682C82.7393 193.873 82.8666 194.22 82.6859 194.528C82.5271 194.8 82.1145 194.941 81.8401 194.75ZM78.1006 176.758C79.3247 176.229 80.529 175.652 81.8101 175.271C82.5754 175.043 82.8996 176.237 82.1386 176.464C80.9585 176.815 79.8522 177.339 78.7247 177.827C78.0011 178.139 77.3718 177.073 78.1006 176.758ZM65.1736 176.387C64.8736 175.649 66.0706 175.33 66.3655 176.059C66.7057 176.897 67.0949 177.715 67.4344 178.552C67.7329 179.291 66.5367 179.61 66.2418 178.882C65.9023 178.043 65.5131 177.227 65.1736 176.387ZM52.4142 191.143C52.2144 191.409 51.8822 191.553 51.5676 191.365C51.305 191.207 51.144 190.788 51.3459 190.519C51.9356 189.733 52.5327 188.957 53.2234 188.256C53.7838 187.688 54.6574 188.563 54.0977 189.131C53.4809 189.756 52.9402 190.441 52.4142 191.143ZM50.5894 108.352C51.1572 108.74 51.6547 109.211 52.139 109.696C52.7032 110.259 51.8281 111.134 51.2647 110.57C50.8564 110.162 50.4438 109.747 49.9653 109.42C49.6887 109.231 49.5643 108.879 49.7436 108.573C49.9038 108.3 50.3135 108.164 50.5894 108.352ZM69.1524 128.26C68.8319 128.902 68.5429 129.532 68.5246 130.263C68.5048 131.059 67.2683 131.06 67.2881 130.263C67.3115 129.307 67.6642 128.478 68.0849 127.635C68.4405 126.921 69.5072 127.549 69.1524 128.26ZM75.9634 112.271C76.6285 111.828 77.2467 112.9 76.5882 113.339C76.0541 113.695 75.5193 114.052 74.9852 114.408C74.3208 114.851 73.7026 113.779 74.3611 113.339C74.8952 112.984 75.4293 112.628 75.9634 112.271ZM46.4218 140.225C46.3084 141.011 45.1173 140.675 45.2292 139.897C45.4034 138.693 45.6156 137.506 45.9419 136.333C46.1555 135.567 47.3481 135.894 47.1345 136.662C46.8082 137.834 46.5952 139.022 46.4218 140.225ZM42.086 154.396C41.29 154.379 41.29 153.142 42.086 153.159C42.8067 153.174 43.5149 153.364 44.2093 153.538C44.9827 153.731 44.6527 154.923 43.8808 154.73C43.2933 154.583 42.6955 154.409 42.086 154.396ZM40.4859 182.942C40.2122 183.075 39.932 183.195 39.6554 183.321C39.1016 183.575 38.5484 183.828 37.9953 184.082C36.8429 184.611 35.692 185.143 34.5411 185.675C32.238 186.741 29.917 187.771 27.6083 188.826C25.2539 189.901 22.9057 190.991 20.5605 192.087C19.4556 192.603 18.3423 193.101 17.2313 193.603C16.2812 194.033 15.1069 194.784 14.064 194.855C14.0103 194.858 13.9924 194.79 14.023 194.755C14.417 194.307 15.0455 194.046 15.5634 193.755C16.0923 193.457 16.6311 193.177 17.1675 192.893C18.2857 192.3 19.4053 191.712 20.5343 191.141C22.7928 189.997 25.0554 188.862 27.3186 187.729C29.6267 186.572 31.9319 185.409 34.2602 184.294C35.3562 183.768 36.4537 183.245 37.5519 182.723C38.1467 182.441 38.7416 182.158 39.3372 181.876C39.594 181.755 39.8486 181.623 40.1113 181.514C40.4603 181.37 40.7259 181.399 41.0858 181.31C41.6734 181.165 41.9272 181.912 41.4765 182.238C41.1056 182.506 40.9102 182.735 40.4859 182.942ZM32.2301 195.627C32.1032 195.318 32.3689 194.943 32.662 194.866C33.013 194.773 33.2945 194.987 33.4226 195.298C33.7616 196.123 34.2448 196.88 34.866 197.519C35.4213 198.091 34.5477 198.966 33.9916 198.394C33.2127 197.592 32.6531 196.656 32.2301 195.627ZM26.1566 175.77C25.593 175.206 26.4675 174.332 27.0311 174.896L28.6338 176.499C29.1975 177.062 28.3227 177.937 27.7594 177.373L26.1566 175.77ZM9.71432 173.156C8.56217 173.494 7.21825 173.805 6.43266 174.788C6.39433 174.836 6.32987 174.775 6.35292 174.727C7.35859 172.641 10.2427 171.91 12.2395 171.179C13.6519 170.662 15.101 170.233 16.5624 169.85C16.4163 168.183 16.8191 166.395 16.9592 164.736C17.1086 162.964 17.2303 161.187 17.2928 159.41C17.3566 157.597 17.372 155.771 17.3124 153.958C17.2531 152.151 17.0186 150.366 16.9159 148.565C16.906 148.391 17.1484 148.382 17.2007 148.527C17.8075 150.198 18.0667 152.049 18.2643 153.811C18.4677 155.627 18.5352 157.437 18.5093 159.262C18.4824 161.14 18.3732 163.012 18.2235 164.884C18.1525 165.77 18.0701 166.656 17.9924 167.542C17.933 168.219 17.9055 168.89 17.7676 169.545C18.649 169.328 19.5324 169.124 20.413 168.925C23.2211 168.291 26.0408 167.703 28.8372 167.017C30.2098 166.681 31.5628 166.278 32.9293 165.92C34.2163 165.583 35.5742 165.175 36.8949 165.024C37.3668 164.971 37.4268 165.615 37.1144 165.835C36.041 166.589 34.615 167.114 33.3746 167.536C32.1299 167.959 30.8361 168.265 29.5604 168.578C26.9 169.233 24.2144 169.768 21.5328 170.326C18.8549 170.882 16.172 171.435 13.5242 172.122C12.2491 172.453 10.9783 172.785 9.71432 173.156ZM3.40044 140.06C2.71195 140.464 2.0904 139.395 2.77641 138.992C3.67408 138.465 4.63073 138.069 5.59513 137.683C6.33521 137.386 6.6537 138.583 5.92394 138.876C5.05722 139.223 4.20703 139.587 3.40044 140.06ZM0.907305 186.021C0.216982 186.421 -0.405075 185.352 0.283272 184.952C1.25002 184.392 2.30866 184.018 3.31052 183.528C4.02323 183.178 4.64924 184.246 3.93448 184.596C2.93284 185.086 1.87405 185.46 0.907305 186.021ZM-0.213965 159.932C0.453529 160.566 1.34433 160.865 2.18435 161.197C2.91667 161.488 2.59547 162.683 1.85554 162.39C0.809044 161.975 -0.256916 161.596 -1.08838 160.806C-1.66683 160.257 -0.790808 159.383 -0.213965 159.932ZM7.17033 124.5C7.90411 124.789 7.58277 125.984 6.84159 125.694C6.0195 125.371 5.17062 125.125 4.34853 124.802C3.61496 124.515 3.93616 123.319 4.67734 123.61C5.49936 123.932 6.34831 124.178 7.17033 124.5ZM20.1969 110.427C20.9766 110.296 21.3086 111.488 20.5257 111.62C19.5543 111.784 18.5978 111.976 17.6765 112.333C16.9325 112.62 16.6134 111.424 17.3477 111.14C18.2692 110.783 19.2257 110.591 20.1969 110.427ZM24.5011 144.692C23.7862 144.34 24.4135 143.274 25.1251 143.624C25.8751 143.992 26.6522 144.278 27.4705 144.452C28.2497 144.618 27.9179 145.811 27.1418 145.645C26.2207 145.448 25.3445 145.107 24.5011 144.692ZM28.5664 125.391C29.3362 125.18 29.6617 126.374 28.8953 126.584C27.5466 126.954 26.158 127.146 24.7994 127.474C24.0252 127.662 23.6976 126.469 24.4707 126.282C25.8292 125.953 27.2179 125.761 28.5664 125.391ZM45.8116 119.334C46.5945 119.479 46.2609 120.671 45.4831 120.527C44.6549 120.374 43.8157 120.371 42.9764 120.371C42.1797 120.371 42.1811 119.134 42.9764 119.134C43.9298 119.134 44.8714 119.16 45.8116 119.334ZM102.056 125.797C100.036 125.604 98.012 125.449 95.9861 125.334C95.8917 125.328 95.7987 125.323 95.7044 125.318C95.6934 125.296 95.6795 125.276 95.6656 125.255C95.0042 124.283 94.5176 123.312 94.0954 122.214C93.6916 121.169 93.3009 120.091 92.6797 119.148C91.9707 118.073 91.0137 117.232 89.9652 116.503C89.3294 116.931 88.7389 117.432 88.199 117.964C87.6305 118.522 86.7554 117.648 87.3239 117.089C87.8039 116.617 88.3168 116.181 88.8582 115.787C88.2326 115.406 87.5946 115.049 86.9727 114.694C84.6394 113.363 82.2513 112.132 79.8141 111.006C78.6808 110.482 77.5343 110.016 76.379 109.544C75.7578 109.291 75.1439 108.965 74.5228 108.671C74.5674 108.232 74.4364 107.74 74.0991 107.451C73.8504 107.239 73.6572 107.16 73.3602 107.011C73.2943 106.987 73.2541 106.973 73.235 106.965C73.2489 106.968 73.2892 106.981 73.3558 107.003C73.5138 107.075 73.5255 107.054 73.3931 106.939C73.385 106.689 72.8919 106.16 72.7792 105.901C72.3863 105.015 72.2641 104.078 71.6846 103.271C70.8857 102.159 69.5438 101.739 68.2934 102.116C68.1639 100.778 68.1295 99.3823 67.6254 98.1883C67.6115 98.1561 67.5669 98.1422 67.5471 98.1773C67.021 99.0728 66.9764 100.07 66.9362 101.103C66.8974 102.073 66.9347 103.064 67.0613 104.028C66.9808 104.089 66.8988 104.148 66.814 104.205C66.4152 104.468 65.9857 104.671 65.5343 104.821C64.6746 105.105 63.7739 105.229 62.8725 105.272C60.5458 105.383 58.1489 105.149 55.861 104.75C53.5468 104.346 49.9989 103.739 47.94 102.581C46.5813 101.818 45.328 100.885 44.0571 99.9823C44.5181 98.4977 44.6359 96.9013 44.172 95.6472C44.1164 95.4972 43.8815 95.4694 43.8362 95.6472C43.5457 96.8442 43.4608 98.0478 43.0745 99.2301C43.0679 99.2477 43.062 99.266 43.0555 99.2828C42.9355 99.2009 42.8147 99.1204 42.694 99.0399C42.416 98.8563 42.037 98.9938 41.8702 99.2565C39.2003 103.464 34.9728 103.706 30.5335 104.457C25.675 105.28 20.7921 106.168 16.1208 107.777C11.6535 109.318 7.38412 111.56 4.00201 114.909C3.2364 115.668 2.5204 116.475 1.84456 117.319C2.49845 117.402 3.14692 117.53 3.78698 117.731C4.54491 117.969 4.21917 119.163 3.45824 118.924C2.63556 118.665 1.80381 118.537 0.963497 118.474C-1.33458 121.619 -3.12642 125.185 -4.67593 128.695C-7.64794 135.425 -9.58245 142.592 -10.4727 149.889C-9.98392 149.596 -9.48631 149.317 -8.97634 149.057C-8.2678 148.696 -7.64282 149.765 -8.35216 150.125C-9.13994 150.526 -9.90504 150.968 -10.6464 151.447C-10.9703 154.641 -11.0957 157.855 -11.0197 161.065C-10.8389 168.717 -9.80627 176.592 -7.47066 183.893C-6.32524 187.476 -4.80726 191.029 -2.54584 194.057C-1.52254 195.428 -0.36015 196.665 1.00945 197.697C1.67255 198.198 2.37436 198.645 3.11473 199.022C4.06845 199.511 5.31125 199.672 6.13364 200.363C6.40413 200.59 6.6128 200.89 6.77047 201.229C6.67931 201.872 6.66848 202.517 6.84467 203.16C6.90034 203.362 7.0518 203.526 7.23881 203.604C7.24196 203.659 7.24196 203.714 7.24196 203.766C7.24196 203.791 7.27905 203.798 7.28366 203.773C7.29142 203.725 7.2991 203.677 7.30686 203.627C7.36714 203.648 7.43051 203.657 7.49541 203.657C9.84345 203.666 12.1944 203.608 14.5455 203.528C14.3637 202.972 14.1668 202.419 13.9778 201.862C13.721 201.105 14.9157 200.783 15.1702 201.533C15.3913 202.184 15.6226 202.83 15.8284 203.484C18.3475 203.39 20.8659 203.278 23.3797 203.195C28.7265 203.016 34.0714 202.958 39.4198 202.845C47.7257 202.669 56.0915 202.308 64.4097 202.661C64.6973 202.051 65.0192 201.453 65.325 200.851C65.685 200.14 66.7518 200.766 66.3925 201.475C66.1804 201.894 65.9609 202.307 65.7516 202.725C67.4366 202.813 69.1194 202.929 70.7986 203.087C73.6645 203.355 76.5026 203.833 79.3656 204.13C82.2762 204.433 85.1238 204.379 88.0109 203.898C88.5304 203.812 88.8363 203.498 88.9636 203.108C88.9679 203.106 88.9709 203.103 88.9738 203.098C89.1223 202.926 89.2614 202.781 89.4055 202.656C89.5767 202.545 89.7625 202.451 89.9806 202.367C90.3866 202.212 90.8103 202.118 91.2405 202.055C91.7131 201.984 92.1924 201.977 92.6658 201.919C93.0638 201.868 93.4538 201.792 93.843 201.699C94.5432 201.533 95.2083 201.314 95.8697 201.025C96.4463 200.773 96.9672 200.411 97.4589 200.016C98.4759 199.272 99.3568 198.323 100.127 197.336C100.575 196.76 100.997 196.161 101.381 195.539C102.049 194.459 102.617 193.338 103.192 192.207C103.401 191.872 103.591 191.529 103.765 191.179C102.641 190.848 101.507 190.578 100.315 190.559C99.5192 190.546 99.5192 189.309 100.315 189.322C101.682 189.344 102.974 189.663 104.258 190.043C104.321 189.877 104.381 189.71 104.437 189.54C104.59 189.186 104.716 188.822 104.822 188.454C104.883 188.287 104.945 188.12 105.007 187.954C105.146 187.375 105.285 186.795 105.426 186.215C105.705 185.287 105.926 184.346 106.089 183.392C106.225 182.764 106.33 182.131 106.401 181.491C106.618 179.94 106.793 178.392 106.806 176.824C106.788 175.858 106.725 174.893 106.621 173.932C106.576 173.28 106.5 172.63 106.398 171.986C106.265 171.027 106.133 170.078 105.913 169.131C105.747 168.491 105.582 167.85 105.416 167.21C105.004 165.876 104.516 164.567 103.955 163.289C103.925 163.209 103.769 163.032 103.674 163.03C103.603 163.029 103.504 163.094 103.537 163.181C103.54 163.188 103.543 163.198 103.546 163.205C103.513 163.133 103.483 163.058 103.45 162.986C103.423 162.918 103.314 162.782 103.231 162.783C103.226 162.783 103.221 162.783 103.216 162.784C103.237 162.769 103.257 162.749 103.277 162.726C103.832 162.069 104.192 161.204 104.59 160.443C104.919 159.815 105.229 159.154 105.319 158.444C105.397 157.821 105.291 157.207 104.9 156.703C104.455 156.129 103.617 155.86 104.083 155.031C104.611 154.088 105.389 153.27 104.615 152.198C104.22 151.652 103.595 151.352 103.132 150.877C102.599 150.329 102.345 149.594 102.359 148.844C102.392 148.862 102.435 148.854 102.45 148.807C102.898 147.452 102.574 145.965 102.114 144.646C101.864 143.93 101.334 143.733 100.718 143.698C103.388 138.479 105.888 133.176 108.116 127.752C108.189 127.574 108.262 127.396 108.335 127.218C108.443 126.952 108.214 126.598 107.95 126.539C106.024 126.117 104.017 125.983 102.056 125.797Z" fill="#142739"/>
<path fill-rule="evenodd" clip-rule="evenodd" d="M81.4748 65.9802C80.4139 53.041 77.1829 41.5808 62.0031 41.0922C55.1526 41.1534 48.1594 42.6093 41.8598 45.3031C26.5482 52.9833 21.69 81.0469 35.1804 92.3437C35.0999 92.3891 35.0802 92.5215 35.1753 92.5852C37.9622 94.4604 41.0601 96.0042 44.163 97.3007C52.4271 100.797 62.1568 102.315 70.5848 98.5226C83.4481 93.0476 83.6405 77.8122 81.4748 65.9802Z" fill="#F4C2C2"/>
<path fill-rule="evenodd" clip-rule="evenodd" d="M106.793 59.9492C107.322 59.4729 107.715 58.8482 107.915 58.1477C108.097 57.5091 108.11 56.8117 107.916 56.1745C107.709 55.491 107.262 54.9467 107.363 54.2354C107.374 54.1658 107.388 54.0931 107.409 54.0204C107.796 52.6813 108.747 51.7148 108.407 50.2303C108.311 49.8112 108.13 49.4339 107.878 49.137C107.905 48.8154 107.93 48.4906 107.951 48.1659C108.508 46.8592 108.489 45.3066 107.893 44.0201C107.821 43.3613 107.711 42.7087 107.556 42.067C107.627 41.4995 107.529 40.8748 107.346 40.3784C107.026 39.505 106.629 38.6443 106.2 37.7978C106.25 37.5663 106.228 37.3217 106.1 37.1041C105.868 36.7087 105.561 36.3611 105.247 36.0213C105.026 35.625 104.803 35.2319 104.581 34.844C104.478 34.6657 104.365 34.4678 104.24 34.2583C104.58 33.6265 104.762 33.0107 104.402 32.2677C104.267 31.9886 103.895 31.7828 103.589 31.801C103.254 31.821 102.916 31.836 102.577 31.8488C101.942 31.082 101.222 30.3938 100.452 29.9976C99.6714 29.3358 98.8797 28.6863 98.11 28.0229C97.892 27.8342 97.6725 27.6456 97.4552 27.4569C97.453 27.4523 97.4515 27.4461 97.45 27.4414C97.2891 26.8554 97.1084 26.277 96.9276 25.6956C96.815 25.3353 96.7806 24.958 96.4301 24.7616C95.697 24.3518 94.5702 24.2869 93.7295 24.2173C93.6461 24.143 93.5627 24.0704 93.4793 23.9961C93.8612 22.9786 93.7932 21.8977 93.3125 20.8787C93.1486 20.5323 92.5794 20.3761 92.267 20.6049C91.547 21.1338 90.6924 21.321 89.8466 21.2436C88.6035 20.2879 83.5909 15.9664 82.8161 15.5103C82.8066 15.4939 82.7993 15.4775 82.789 15.4613C82.3537 14.7657 81.8247 14.2072 81.2298 13.7593C81.145 13.6707 81.0601 13.582 80.9752 13.4932C81.0499 12.963 81.2467 12.4509 81.5628 12.0226C81.5971 11.9731 81.6352 11.9252 81.674 11.8788C82.2278 11.2201 81.5518 10.3727 80.7791 10.7175C80.7235 10.7422 80.6679 10.767 80.6123 10.7932C80.0182 11.0583 79.3605 11.3464 78.6756 11.5895C78.4254 11.4956 78.17 11.4105 77.9374 11.3169L75.4431 10.3137C75.0319 10.1486 74.5981 10.0086 74.2008 9.81455C74.0625 8.8931 73.1391 8.28875 72.1807 8.32028C72.2363 8.14337 72.3189 7.97157 72.4353 7.80878C72.4689 7.76085 72.5062 7.71439 72.545 7.66961C73.0382 7.09584 72.3797 6.03201 71.6743 6.54227C71.6253 6.57783 71.5741 6.61339 71.5244 6.64895C71.329 6.78643 71.1285 6.91542 70.9258 7.04039C70.601 6.89874 70.2359 6.8664 69.8532 7.01624C69.0067 7.3479 68.226 7.6852 67.4805 8.20512C67.4505 8.22626 67.419 8.24404 67.3883 8.26402C67.0181 7.81682 66.4305 7.51772 65.9015 7.52101C65.8906 7.52101 65.8825 7.52079 65.873 7.52065C65.4772 6.91776 64.7521 6.56737 64.0519 6.65253C64.0995 5.78734 63.2332 5.01522 62.4452 4.92135C61.524 4.81189 60.6943 5.34681 60.4177 6.24551C60.3409 6.49574 60.2641 6.74611 60.1873 6.99649C59.4717 6.63534 58.7174 6.3587 57.9286 6.22063C56.1339 5.90609 54.3786 6.24105 52.649 6.7396C52.4755 6.78943 52.3029 6.84057 52.1302 6.89164C51.8836 6.60571 51.6524 6.31297 51.4315 6.03969C51.0495 5.56806 50.1328 5.94538 50.195 6.55156C50.2374 6.96985 50.0676 7.27079 49.794 7.48465C49.494 7.52855 49.2036 7.54187 48.766 7.53301C48.1873 7.52131 47.9239 7.50316 47.3188 7.2672C47.0371 7.15745 46.6859 6.86874 46.522 6.60958C45.8921 5.61569 44.2919 5.34805 43.5295 6.29563C42.7276 5.94443 41.715 6.42879 41.2702 7.11165C41.0375 7.4687 40.5509 7.66837 39.9393 7.84002C39.4805 7.96864 39.0108 8.0661 38.5389 8.15127C38.3289 7.86599 37.8862 7.67466 37.5614 7.91392C37.3411 8.07642 37.1275 8.24331 36.9168 8.4143C35.2925 8.63826 33.6762 8.64624 32.1272 8.01254C30.8157 7.47594 29.6116 8.94146 29.828 10.1718C29.4482 10.3695 29.0361 10.5011 28.6609 10.7084C27.8424 11.1608 27.1704 11.876 26.7607 12.7163C26.6873 12.8668 26.621 13.0195 26.5578 13.1731C26.2519 13.4222 25.9493 13.678 25.6541 13.9479C25.1626 13.6958 24.6726 13.4437 24.181 13.1917C23.8131 13.003 23.1932 13.1345 23.1206 13.6231C23.0016 14.4272 22.7125 15.0937 22.2998 15.652C20.9581 16.3571 19.6673 17.1488 18.4323 18.0287C17.0118 18.4741 15.5016 18.7339 14.2603 19.0261C13.8352 19.1266 13.6033 19.6818 13.8429 20.0514C14.0964 20.4426 14.3499 20.8338 14.6019 21.225C13.8955 21.9147 13.2324 22.6353 12.6063 23.3807C10.8642 25.4528 9.4066 27.7245 8.10197 30.1306C7.58571 30.3393 7.06938 30.5465 6.55311 30.7553C6.05537 30.9563 5.83126 31.5347 6.2347 31.96C6.42632 32.1625 6.59796 32.3759 6.74481 32.6002C6.01366 33.8109 5.15264 34.9151 3.94847 35.6388C3.58213 35.8583 3.30702 36.2032 3.16018 36.5944C3.03492 36.6779 2.91127 36.7676 2.78916 36.8588C2.44908 37.1155 2.24348 37.6753 2.64231 38.0078C2.9221 38.2428 3.18491 38.5212 3.40748 38.8289C3.45541 39.0037 3.50487 39.1799 3.55433 39.3547C2.43518 40.3845 1.50465 41.5815 0.805988 42.9237C0.640559 42.8974 0.470521 42.9144 0.332969 43.0165C-0.91605 43.9397 -0.953147 45.4102 -0.450715 46.7247C-0.753696 48.7056 -0.558928 50.7359 0.0253768 52.655C-0.742868 53.422 -1.20506 54.5292 -1.39368 55.5962C-1.726 57.4704 -1.74919 60.3528 -1.83575 62.2657C-2.67357 63.0745 -3.27025 64.1213 -3.60257 65.2471C-3.88235 65.3863 -4.16214 65.5254 -4.44193 65.6646C-4.69076 65.7883 -4.87317 66.1146 -4.85773 66.3898C-4.78661 67.7212 -4.23787 68.7728 -3.50979 69.7251C-3.25166 70.4597 -2.86988 71.1372 -2.36906 71.7869C-2.02276 72.2318 -1.68429 72.6591 -1.38592 73.1398C-1.35505 73.1873 -1.33647 73.2327 -1.32256 73.2634C-1.44007 73.39 -1.53745 73.6007 -1.62247 73.7507C-2.33657 75.0092 -2.3474 76.4842 -1.33339 77.581C-1.71517 77.8934 -1.72754 78.5241 -1.39061 78.9111C0.802841 81.4178 2.63148 84.4652 5.67512 85.7968C5.68902 85.8202 5.70139 85.8429 5.71221 85.8663C5.09542 87.3508 5.01201 88.1227 5.51591 89.6563C5.51898 89.6702 5.52359 89.6826 5.52827 89.6965C5.79723 90.5006 6.29184 91.7891 7.18381 92.0393C7.46513 92.1183 7.74177 92.1542 8.01541 92.152C8.72337 92.8346 9.42979 93.518 10.1362 94.2014C10.198 94.5401 10.2367 94.8818 10.249 95.2264C10.2691 95.803 10.8117 96.2705 11.396 96.1C11.6016 96.04 12.7392 94.9345 12.9479 94.9404C13.053 95.0457 13.155 95.1511 13.2571 95.2572C13.6327 95.6515 14.1536 96.2734 14.1969 96.6861C14.2804 97.4639 14.7904 98.355 15.6144 98.5123C15.9235 98.8262 16.4182 98.9206 16.7969 98.5109C16.8216 98.4845 16.8463 98.4582 16.8726 98.4355C16.9128 98.4304 16.9515 98.426 16.9917 98.4216C17.1741 98.966 17.3565 99.5103 17.5404 100.052C17.9005 101.123 19.2763 101.811 20.2532 101.187C20.4109 101.28 20.5655 101.381 20.7201 101.481C20.955 101.631 21.193 101.784 21.4372 101.928C21.4512 101.969 21.4651 102.009 21.4775 102.048C21.6351 102.528 22.2905 102.787 22.694 102.51C22.8192 102.55 22.9475 102.583 23.0773 102.609C23.759 102.744 24.4453 102.706 25.1038 102.479C25.5753 102.318 26.0251 102.01 26.5321 101.969C26.5638 101.966 26.5964 101.968 26.6286 101.967C27.0422 102.815 27.9874 103.545 28.7323 103.793C29.708 104.119 30.7066 104.003 31.5951 103.605C31.8349 104.084 32.1359 104.538 32.4956 104.958C32.6951 105.189 33.0552 105.14 33.2608 104.958C33.6513 104.611 34.0391 104.264 34.4269 103.915C34.7072 103.807 34.9903 103.677 35.2852 103.557C36.2085 103.18 37.2211 103.023 38.075 102.478C38.4803 102.219 38.8615 101.889 39.1761 101.506C39.7681 101.165 40.3117 100.739 40.8012 100.251C41.0455 100.252 41.3002 100.195 41.5475 100.07C42.582 99.544 43.1256 98.4736 43.1739 97.379C44.0117 95.4072 44.5063 93.3044 44.6424 91.1518C44.6856 90.445 44.6936 89.7324 44.6395 89.0256C44.6021 88.5274 44.477 88.1952 44.2883 87.7452C44.2246 87.5981 44.1675 87.4635 44.1229 87.315C44.1339 86.8387 44.1397 86.3631 44.1463 85.8882C44.2744 85.4873 44.5034 85.1149 44.8216 84.801C45.3148 84.3152 45.5401 83.3069 45.0924 82.707C44.7997 82.3192 44.5092 81.9307 44.2173 81.5429C44.2992 79.8769 44.698 77.2268 43.8134 76.9488C43.8493 76.7008 43.9254 76.4564 43.9685 76.2106C44.1756 75.0297 44.0519 73.9731 43.4242 72.94C43.2925 72.7257 43.1813 72.5354 43.0905 72.3496C43.0335 72.0094 42.9757 71.6691 42.9186 71.3289C42.8308 70.805 42.7437 70.2761 42.6698 69.7441C42.631 69.0666 42.5959 68.3893 42.5571 67.7104C42.5213 67.0857 42.4811 66.4609 42.4393 65.8347C42.4569 65.5548 42.4811 65.2749 42.5169 64.995C42.7284 63.3265 43.4103 62.7095 44.5912 61.5497C44.777 61.5203 44.9607 61.4878 45.1414 61.4508C45.9842 61.276 46.8652 61.0054 47.7322 61.1028C48.6738 61.208 49.516 61.6146 50.4313 61.0951C50.6998 60.9404 51.2924 60.5136 51.3429 60.175C51.3466 60.1534 51.351 60.1348 51.3568 60.1209C51.4205 60.1116 51.5024 60.1038 51.5537 60.1023C52.2802 60.0776 52.9738 60.3637 53.7069 60.2848C54.574 60.192 55.3495 59.8069 55.8602 59.2364C56.5136 59.3972 57.1816 59.4699 57.8598 59.3802C58.4291 59.306 58.939 59.1203 59.4432 58.8451C59.809 58.6472 59.6934 58.59 60.0921 58.7508C60.9994 59.1188 61.8203 59.6044 62.8417 59.3524C63.3722 59.2224 63.8295 58.9363 64.2151 58.5513C64.3058 58.4616 64.4602 58.3271 64.5641 58.2003C65.0492 58.4461 66.2703 59.0013 66.4715 59.0508C67.0407 59.1899 67.6429 59.1683 68.1968 58.9827C68.6028 58.8466 69.1011 58.4755 69.4581 58.3997C69.9198 58.3008 70.9463 58.9441 71.498 59.1652C72.466 59.5533 73.4911 59.6493 74.4707 59.2487C74.808 59.1111 75.4629 58.5622 75.7153 58.5668C76.125 59.0724 77.2686 61.8389 77.6118 62.8487C79.0012 66.931 79.3619 79.6779 78.7202 82.9301C78.6954 83.026 78.669 83.1204 78.6427 83.2162C77.8547 86.0441 77.0338 88.9202 75.7153 91.5557C74.4708 94.039 72.7506 96.2749 70.282 97.6314C67.7219 99.0384 64.717 99.4079 61.8386 99.2177C59.9853 99.0969 58.1628 98.7245 56.3702 98.2577C55.4329 98.0148 54.5044 97.7441 53.5796 97.4624C53.1765 97.3402 52.7668 97.2261 52.3709 97.0834C51.6722 96.8317 51.3064 96.8112 50.6369 97.1346C50.0274 97.4287 49.8716 98.2958 50.1884 98.8416C50.7049 99.7327 51.651 99.7942 52.5641 100.054C53.4948 100.319 54.4283 100.572 55.3685 100.8C57.1692 101.233 58.999 101.565 60.845 101.718C64.1499 101.995 67.5551 101.568 70.5629 100.126C70.9032 99.9618 71.231 99.7869 71.5478 99.5981C71.4307 99.762 71.3114 99.9259 71.1907 100.088C70.8571 100.538 71.1044 101.304 71.5726 101.549C71.7212 101.627 71.8697 101.701 72.019 101.774C72.0394 101.822 72.0607 101.87 72.0855 101.917C72.5136 102.777 73.4106 103.285 74.3237 103.504C75.4095 103.764 76.624 103.58 77.7281 103.548C78.751 103.517 79.7746 103.485 80.796 103.455C81.0374 103.449 81.2781 103.441 81.5196 103.433C82.7349 103.396 83.948 103.36 85.1611 103.323C86.2432 103.291 86.1927 103.374 87.2082 102.941C87.6611 102.746 88.0321 102.471 88.3438 102.105C88.5391 102.018 88.7272 101.919 88.9086 101.806C89.4896 101.445 90.0061 100.959 90.4817 100.424C91.2902 100.679 92.4235 100.442 92.5808 99.4262C92.8347 97.8012 94.9463 97.1068 95.9326 95.9318C96.7286 94.9835 97.2971 93.7419 97.2679 92.55C99.2741 91.5784 100.366 89.0198 100.62 86.8482C100.74 85.8414 100.721 84.7637 100.893 83.7401C100.969 83.6581 101.037 83.5718 101.094 83.4789C101.597 82.6638 102.036 81.8239 102.423 80.9642C102.948 80.5852 103.581 80.3518 104.242 80.313C105.869 80.2193 106.174 78.0251 104.624 77.4961C104.617 77.4924 104.61 77.491 104.603 77.488C105.023 76.4366 104.988 75.1921 104.477 74.1956C104.499 74.088 104.519 73.9812 104.539 73.8729C105.409 72.9371 105.909 71.6369 105.853 70.3704C106.25 70.0902 106.695 69.8736 107.183 69.739C107.935 69.532 107.94 68.6135 107.383 68.2022C107.159 68.0367 106.973 67.8434 106.819 67.63C107.204 66.4733 107.052 65.1358 106.266 64.1863C106.765 63.5461 107.265 62.9059 107.764 62.2657C108.094 61.842 108.269 61.1229 107.764 60.7208C107.44 60.4626 107.117 60.2059 106.793 59.9492Z" fill="black"/>
<path fill-rule="evenodd" clip-rule="evenodd" d="M70.3473 83.9787C70.8778 83.0429 72.4603 83.1951 72.7025 84.2867C73.1927 86.5 70.5544 88.5442 68.5503 88.5955C66.5595 88.6459 64.325 86.95 64.6133 84.8084C64.6842 84.2787 65.3918 84.343 65.6332 84.6752L65.7269 84.8025C66.3817 85.6827 67.2458 86.5936 68.4611 86.3793C68.9652 86.2907 69.4225 85.9754 69.7269 85.5708C70.0941 85.0813 70.0539 84.4974 70.3473 83.9787ZM57.6852 67.7853C57.9551 67.7108 58.2273 67.7397 58.4666 67.8414C59 67.9393 59.4463 68.3846 59.6029 68.8933C59.6153 68.9372 59.6292 68.9803 59.6446 69.0235L59.668 69.0879L59.6043 68.9247C59.6336 69.085 59.7646 69.254 59.8114 69.415C59.8692 69.6132 59.8831 69.8379 59.8633 70.0559C60.0331 70.0581 60.2028 70.0639 60.3726 70.0786L60.5365 70.0932C61.4518 70.1781 62.4571 70.3347 63 71.1256C63.3043 71.5704 63.0182 72.3709 62.4585 72.4565C61.5966 72.5889 60.854 72.1119 59.9943 72.016C59.1821 71.9253 58.3327 71.9772 57.5308 72.1243C55.8758 72.4265 54.3554 73.0981 52.7421 73.5188L52.5226 73.5745L52.5233 73.5737C52.2467 73.6403 51.9328 73.2562 52.2065 73.0308C53.4986 71.9692 55.1529 71.1088 56.7823 70.5849C56.5452 70.2066 56.4713 69.7091 56.6338 69.3037C56.6586 69.2196 56.6901 69.1377 56.723 69.0564L56.7918 68.8889C56.7984 68.8099 56.8138 68.7317 56.8357 68.6551L56.8386 68.6317L56.8408 68.6331C56.9623 68.2387 57.2791 67.8972 57.6852 67.7853ZM74.1695 67.8464C74.5229 67.4927 75.0197 67.5449 75.3884 67.8233L75.4375 67.8616C75.785 68.0161 76.0726 68.3537 76.2613 68.6665C76.4574 68.9913 76.5876 69.322 76.5928 69.6798C77.4481 69.6827 78.2675 69.9396 78.896 70.6303C79.0987 70.8534 79.237 71.1973 79.1258 71.4995L79.0592 71.6795C78.8485 72.2501 77.9002 72.5794 77.5776 71.9077L77.5629 71.8748C77.2205 71.0773 75.9065 71.1614 75.2077 71.2427C74.7204 71.2997 74.2397 71.4212 73.7693 71.5565C73.6039 71.6041 73.44 71.656 73.2754 71.7094L73.1115 71.7621C73.0244 71.7907 72.5686 72.038 72.8518 71.9794C72.9279 71.9641 72.9857 72.0745 72.9081 72.1119C72.5701 72.2736 72.2094 71.9516 72.2321 71.5887C72.2708 70.9588 73.2717 70.6127 73.7532 70.3954L73.7817 70.3822C73.9661 70.2973 74.16 70.2154 74.359 70.1393C74.2471 69.9725 74.1541 69.7866 74.0773 69.5876C74.0041 69.3996 73.9559 69.2167 73.9288 69.0169C73.9024 68.9189 73.9024 68.8216 73.9288 68.7236L73.9332 68.6956C73.9193 68.631 73.9127 68.5642 73.9134 68.4969L73.9112 68.4708H73.9134C73.9229 68.2352 74.0166 67.9993 74.1695 67.8464ZM68.5233 74.5585C69.8812 74.9778 72.1208 76.1214 71.4133 77.8861C70.4256 79.506 67.8055 78.3156 66.5361 77.7917C65.3954 77.4135 64.8013 79.0129 65.9047 79.4951C75.0182 83.1021 74.9846 73.5825 68.854 73.7222C68.1787 73.7376 68.1574 74.4188 68.5233 74.5585ZM56.4655 62.1461L56.6974 62.0784C57.9003 61.7297 59.1287 61.1276 60.1977 62.0671C60.6169 62.4361 60.7033 63.2028 60.4033 63.663C59.7192 64.7115 58.7051 64.5514 57.601 64.6407C56.7596 64.7088 55.9314 64.9559 55.1463 65.2647C54.5054 65.5173 53.9098 65.8728 53.3486 66.2693C52.7962 66.6591 52.4194 67.2685 51.8531 67.6194C51.646 67.748 51.406 67.6157 51.3322 67.4071C51.068 66.6671 51.5136 65.7453 51.8911 65.1148C52.3521 64.3457 53.0523 63.7166 53.8044 63.2407C54.629 62.7194 55.5399 62.4184 56.4655 62.1461ZM74.0005 61.3499C76.0345 61.3492 77.9917 62.481 79.1294 64.1401C79.5158 64.7038 79.2326 65.5388 78.6773 65.8634C78.0546 66.2277 77.3895 65.9653 76.9791 65.4433L76.9549 65.4117C76.3023 64.5425 75.4609 63.8579 74.4644 63.4123C73.9778 63.1947 73.44 63.0182 72.914 62.9287L72.7435 62.8995C72.505 62.8596 72.2291 62.8214 72.0133 62.8588C71.8977 62.8739 71.7916 62.9121 71.6943 62.9703C71.7411 63.073 71.6197 63.1966 71.5077 63.1351C71.0021 62.8574 71.0643 62.362 71.4814 61.9769C72.0726 61.4321 73.2374 61.35 74.0005 61.3499Z" fill="black"/>
<path fill-rule="evenodd" clip-rule="evenodd" d="M69.4786 80.5757C67.7599 79.8008 64.673 80.4769 63.5521 80.7454C60.9467 81.3703 58.3259 82.7216 57.5159 84.8376C56.6028 87.2228 58.4246 87.9735 58.6924 87.8506C60.496 87.9779 62.6434 86.8438 64.5333 86.5504C66.0683 86.3112 67.6867 86.1019 69.1237 85.2861C70.1737 85.8641 72.5442 86.1758 74.4575 86.6814C76.0869 87.1109 76.793 88.043 78.3031 87.8447C80.114 87.6077 79.3728 83.7986 77.3549 82.2556C75.1468 80.5662 71.4116 79.8813 69.4786 80.5757ZM72.883 96.8624C71.3787 97.2297 71.2777 93.9321 71.1095 92.7666C70.9778 91.8564 70.2351 89.5092 68.3533 89.611C66.4707 89.7119 65.7632 91.6786 65.859 92.9012C65.9212 93.6951 66.6514 97.7126 64.3196 98.2211C62.8329 98.2153 61.1128 98.1151 59.5492 97.8268C57.7091 97.4097 55.3165 95.9501 54.6844 98.8248C54.4568 99.8593 62.5622 102.933 66.159 103.211C69.8071 103.951 74.0749 102.814 76.6723 100.022C77.2627 99.3867 78.9265 96.7505 79.0458 96.1052C79.2945 94.748 78.718 93.8751 77.0396 94.3528C75.8535 94.9865 73.8495 96.6268 72.883 96.8624Z" fill="black"/>
<path fill-rule="evenodd" clip-rule="evenodd" d="M83.1432 75.4921C81.2665 77.4325 78.1343 77.9893 75.6371 76.9488C69.2256 74.2688 72.3637 65.9108 77.3082 63.6663C77.9258 63.5122 78.7511 63.1468 79.5032 63.064C79.5713 63.0305 79.7191 63.1272 79.899 63.0358C85.3507 63.6448 86.5923 72.1111 83.1432 75.4921ZM62.4643 75.9889C60.36 78.7817 56.4464 79.6436 53.249 78.3449C46.9326 75.8565 49.1729 68.445 53.4948 65.5393C62.6238 62.1078 66.3933 70.8395 62.4643 75.9889ZM48.772 69.8005C48.7661 69.7976 48.7603 69.7969 48.7544 69.7939C48.7873 69.7793 48.821 69.7647 48.8539 69.7493C48.8437 69.7778 48.8312 69.8056 48.821 69.8342C48.8049 69.8225 48.7903 69.8093 48.772 69.8005ZM87.4886 66.7817C86.9735 66.7827 86.2286 66.8675 85.8021 67.2251C84.75 63.6758 80.867 60.3908 77.4897 62.7861C74.8301 63.6418 72.8568 65.5393 71.7352 68.062C69.7128 66.8586 66.533 67.3725 64.7793 68.9642C63.6305 65.1674 60.8041 63.838 57.44 63.6418C53.7678 63.04 50.108 66.6077 48.9659 69.4698C48.0162 69.3615 46.5975 69.0593 45.7041 69.6454C39.9064 68.1245 29.7699 67.2859 28.5913 68.131C27.7513 68.4535 27.2904 70.4371 28.4636 70.5439C29.486 70.3983 28.3443 69.0908 29.3748 68.9481C34.866 68.6073 40.1962 69.7134 45.6295 70.178C46.1146 70.8307 47.6818 71.0487 48.5181 70.7868C47.2011 75.6414 50.0436 78.9448 54.3026 79.934C60.8985 81.4493 66.6362 75.5477 64.9117 69.4083C66.9099 68.414 69.208 68.4567 71.384 68.9803C67.7469 82.3705 89.3038 81.7698 85.9374 67.684C88.1778 68.7989 88.6643 67.0067 87.4886 66.7817Z" fill="black"/>
</g>
</g>
<defs>
<linearGradient id="paint0_linear_3661_500" x1="59.5" y1="0" x2="59.5" y2="119" gradientUnits="userSpaceOnUse">
<stop stop-color="#833AB4"/>
<stop offset="0.5" stop-color="#FD1D1D"/>
<stop offset="1" stop-color="#FCB045"/>
</linearGradient>
<clipPath id="clip0_3661_500">
<rect width="119" height="119" fill="white"/>
</clipPath>
</defs>
</svg>
