<svg width="119" height="119" viewBox="0 0 119 119" fill="none" xmlns="http://www.w3.org/2000/svg">
<g clip-path="url(#clip0_3661_571)">
<circle cx="59.5" cy="59.5" r="57" stroke="url(#paint0_linear_3661_571)" stroke-width="5"/>
<mask id="mask0_3661_571" style="mask-type:alpha" maskUnits="userSpaceOnUse" x="14" y="14" width="91" height="91">
<circle cx="59.5" cy="59.5" r="44.7784" fill="#C4C4C4"/>
</mask>
<g mask="url(#mask0_3661_571)">
<path fill-rule="evenodd" clip-rule="evenodd" d="M26.1263 99.8382C27.4733 94.612 28.7128 92.3958 31.106 90.5791C33.3449 88.8794 36.6125 87.4527 41.3808 86.4101C46.3473 85.5416 46.4885 82.9595 47.7338 78.8103C48.0967 77.5628 49.8973 77.2306 50.6736 78.1298C50.7833 78.012 50.8975 77.9038 51.016 77.8057C50.9099 77.2109 51.7762 75.5054 51.7469 74.9361C51.4455 68.9965 53.388 66.0135 58.236 64.9043C59.2904 64.6636 66.4526 64.5217 67.4806 64.8056C71.9752 66.0487 76.3995 69.9945 75.722 74.7481C77.1334 76.5926 78.514 77.7179 80.6907 78.312C85.5343 78.9274 90.3777 79.4739 95.2228 79.9422C104.707 81.4304 113.599 86.4518 119.677 93.7742C120.238 94.4503 120.399 95.3678 119.905 96.0885C120.292 97.7486 122.474 101.776 120.757 102.914C123.58 109.667 130.075 122.718 130.087 126.447C130.138 142.111 128.446 162.5 112.992 171.168C112.373 171.777 112.285 172.45 112.017 173.355C111.338 176.207 108.87 178.245 106.169 178.078C92.8649 178.374 79.9788 176.75 66.6743 176.672C60.8064 176.637 53.7502 177.514 48.6535 178.097C43.5567 178.681 38.4117 178.164 33.5205 176.672C33.1078 177.322 32.2738 177.7 31.428 177.514C26.3576 176.506 22.2566 173.38 18.6853 169.964C17.5937 167.979 13.3318 162.321 15.0256 160.351C13.4898 153.858 13.5703 146.88 16.2987 140.697C15.9123 139.564 16.6169 138.318 16.2987 137.147C16.0689 136.301 15.4785 135.95 15.1821 135.112C14.7644 133.931 15.2187 132.347 15.6892 131.143C15.8816 130.543 15.3343 129.897 15.1821 129.284C14.46 126.395 16.1128 126.65 17.304 124.718C17.2864 124.713 16.9769 123.333 16.9784 123.341C16.7955 122.356 17.2527 121.095 17.6515 120.274C17.9208 119.718 18.498 119.371 19.0717 119.434C18.4937 117.473 17.7635 115.841 16.9784 113.952C15.589 110.622 13.8308 107.433 11.8363 104.418C11.0197 103.184 12.1165 101.754 13.4386 101.67C17.7166 101.398 21.9478 100.782 26.1263 99.8382Z" fill="#F4C2C2"/>
<path fill-rule="evenodd" clip-rule="evenodd" d="M38.6122 125.023C40.3236 124.351 42.1659 123.98 44.0177 123.836C43.0212 123.662 42.021 123.493 41.0128 123.407C40.3097 123.346 39.6578 123.352 39.1288 123.886C38.7761 124.241 38.6107 124.699 38.3788 125.12C38.4549 125.086 38.5339 125.054 38.6122 125.023ZM20.246 118.747C23.0483 118.89 25.8535 119.557 28.3887 120.764C29.4262 121.258 30.3657 121.973 30.6408 123.148C30.7805 123.748 30.7461 124.369 30.6722 124.975C30.6166 125.434 30.6027 126.02 30.2032 126.331C30.1359 126.383 30.0627 126.423 29.9874 126.453C30.9224 126.875 31.8129 127.382 32.6045 127.905C33.3274 128.383 34.0708 129.119 34.4052 129.949C34.433 129.855 34.4608 129.767 34.4886 129.683C35.0571 128.001 35.9336 126.623 37.3142 125.697C37.0699 125.587 36.9016 125.327 36.9799 124.969C37.3077 123.47 38.6912 122.168 40.2541 122.261C41.9654 122.361 43.8033 122.984 45.3508 123.772C45.9149 123.759 46.4776 123.767 47.0336 123.791C47.1295 123.794 47.1251 123.925 47.0336 123.936C46.5822 123.993 46.1315 124.056 45.6801 124.13C44.6067 124.302 43.537 124.52 42.4907 124.791C41.2359 125.116 39.9372 125.441 38.7637 126.009C36.4889 127.112 35.0805 129.994 35.3695 132.503C35.4178 132.914 35.5766 134.157 36.1472 134.029C36.6294 133.921 36.8211 132.914 36.9894 132.541C37.4408 131.551 38.2537 130.905 39.229 130.467C40.3748 129.952 41.6003 129.604 42.7878 129.199C43.4602 128.969 44.1326 128.738 44.8064 128.51C45.4957 128.273 46.1512 127.947 46.8851 128.112C47.3292 128.213 47.3804 128.742 47.1309 129.045C46.7527 129.507 46.19 129.643 45.6442 129.833C44.9243 130.084 44.205 130.335 43.4865 130.585C42.3751 130.971 41.2111 131.298 40.1275 131.771L40.1611 131.848C40.2497 131.824 40.3536 131.911 40.336 132.02C40.1736 133.021 39.9482 134.177 40.1985 135.179C40.396 135.974 41.094 136.854 41.9991 136.62C41.8571 136.49 41.8044 136.266 41.9003 136.059C42.2588 135.292 46.9583 132.264 47.3768 133.389C47.3907 133.429 47.3475 133.458 47.3139 133.452C46.9568 133.378 46.3583 133.987 46.0722 134.18C45.6596 134.458 45.2411 134.73 44.8328 135.017C44.3858 135.329 43.9504 135.657 43.5253 135.996C43.1909 136.262 42.9393 136.538 42.5559 136.673C42.7571 136.769 42.9158 136.947 42.9839 137.174C43.1573 137.766 43.4909 138.269 44.0704 138.53C44.6784 138.802 45.3633 138.63 46.0027 138.698C46.8749 138.785 47.6351 139.199 48.2701 139.792C49.6047 141.038 50.2734 143.235 52.1392 143.824C53.2542 144.175 54.4907 143.953 55.6189 143.794C56.8789 143.616 58.1059 143.475 59.3753 143.661C60.5899 143.839 61.7386 144.26 62.8485 144.773C63.8889 145.254 65.0391 145.798 65.9617 146.515C66.1519 145.929 66.3436 145.35 66.4892 144.751C66.8317 143.336 67.0175 141.895 67.0621 140.441C67.1038 139.058 67.027 137.667 66.9077 136.29C66.8492 135.601 66.7563 134.916 66.6978 134.228C66.6824 134.055 66.6509 133.869 66.6283 133.684C64.9798 132.711 63.2487 131.966 61.5037 131.199C61.4993 131.197 61.4942 131.194 61.4898 131.193C61.4357 131.168 61.383 131.145 61.3288 131.121C61.3303 131.118 61.3325 131.115 61.3354 131.112C61.1357 130.99 60.9967 130.828 60.9133 130.645C58.3985 128.977 56.2957 126.699 54.7285 124.042C54.0715 122.929 53.4393 121.773 52.5804 120.798C51.665 119.757 50.5785 119.139 49.2337 118.817C47.6614 118.44 46.0415 118.214 44.4311 118.085C43.5509 118.016 42.5683 117.907 41.6098 117.913C40.9418 117.917 40.2884 117.974 39.6885 118.139C38.7995 118.384 38.28 119.06 37.7225 119.743C37.1891 120.399 36.6587 121.056 36.1611 121.74C35.69 122.387 35.2444 123.057 34.8581 123.759C34.6261 124.18 34.411 124.613 34.2303 125.059C34.1666 125.217 34.0832 125.397 34.0444 125.561C34.0064 125.726 34.0774 125.901 33.8915 125.901C34.6568 125.912 34.6495 127.135 33.8886 127.09C30.9115 126.917 35.1763 121.103 35.7997 120.292C36.6821 119.145 37.5923 117.648 39.0051 117.114C39.0256 117.107 39.0468 117.099 39.0673 117.093C38.6561 116.703 38.3313 116.236 38.0203 115.761C37.7006 115.273 37.3186 114.713 37.2133 114.133C37.1474 113.763 37.6062 113.553 37.8242 113.876C38.141 114.348 38.2939 114.945 38.5303 115.463C38.7717 115.989 39.0651 116.485 39.297 117.016C39.8553 116.844 40.4582 116.765 41.0721 116.739C40.2972 115.69 38.9744 113.667 38.8149 113.408C38.0825 112.205 37.3852 110.965 36.7187 109.723C35.9987 108.377 35.3819 106.976 34.6927 105.615C34.3013 104.844 33.9069 104.066 33.473 103.317C33.323 103.061 33.1621 102.804 32.9799 102.571C32.944 102.524 32.8994 102.486 32.8577 102.442C32.8094 102.416 32.7604 102.387 32.7326 102.371C32.4823 102.228 32.3938 101.894 32.2182 101.681C31.9365 101.34 31.6058 101.3 31.1822 101.295C30.2793 101.286 29.3735 101.321 28.4721 101.346C27.1478 101.383 25.8242 101.435 24.5014 101.505C24.1012 101.527 23.7024 101.549 23.3015 101.573C21.3772 101.688 19.4544 101.838 17.536 102.022C15.8385 102.184 14.1418 102.449 12.4429 102.575C14.7432 108.042 17.2931 113.409 20.1809 118.59C20.2102 118.642 20.2321 118.695 20.246 118.747ZM33.0077 132.83C33.3786 133 33.7386 133.212 34.0737 133.453C34.0181 133.078 34.0042 132.682 34.0203 132.284C33.743 132.581 33.3896 132.751 33.0077 132.83ZM17.1709 123.427C17.1972 123.43 17.2221 123.444 17.2345 123.47C17.7474 124.529 17.5331 125.712 16.6953 126.542C16.2563 126.976 15.2993 127.464 15.33 128.176C15.3563 128.751 15.9827 129.234 16.2497 129.708C16.4985 130.15 16.5914 130.636 16.3916 131.115C16.137 131.729 15.4244 131.974 15.18 132.576C14.8713 133.342 15.3732 134.265 15.7258 134.932C16.0536 135.548 16.4773 136.165 16.7582 136.818C18.643 137.794 20.3287 139.291 21.7789 140.811C23.3666 142.474 24.7282 144.429 27.2495 144.38C27.5012 144.375 27.6929 144.508 27.8078 144.692C28.5094 144.725 29.2126 144.739 29.9142 144.742C31.1478 144.748 32.3814 144.735 33.6135 144.697C33.6998 144.399 33.6362 143.993 33.6413 143.741C33.6567 142.929 33.664 142.119 33.6984 141.307C33.7079 141.081 33.7167 140.854 33.7262 140.628C33.2828 141.431 32.4172 141.796 31.431 141.741C29.8447 141.648 28.2497 141.388 26.6795 141.154C25.852 141.032 25.0267 140.893 24.2029 140.744C23.5254 140.624 22.5705 140.655 22.0972 140.112C21.9859 139.985 21.9801 139.753 22.1549 139.668C22.6232 139.438 22.9181 139.566 23.4332 139.665C24.0602 139.787 24.6894 139.903 25.3201 140.012C26.531 140.222 27.7441 140.416 28.9609 140.588C29.653 140.685 30.3474 140.781 31.041 140.857C31.6468 140.923 32.3302 141.01 32.8189 140.555C33.8037 139.633 33.2513 138.088 32.6287 137.157C32.6162 137.138 32.6162 137.122 32.6206 137.105C32.0338 136.968 31.4478 136.808 30.8632 136.694C29.7394 136.478 28.6082 136.296 27.4749 136.133C25.1475 135.801 22.8039 135.581 20.4633 135.36C19.8839 135.304 19.878 134.392 20.4633 134.446C23.8261 134.754 27.2049 135.046 30.5215 135.694C31.3534 135.855 32.1787 136.037 32.9996 136.243C33.3874 136.339 33.8037 136.489 34.2098 136.494C34.2347 136.494 34.2596 136.494 34.2844 136.492C35.0805 136.467 35.1961 135.786 34.7585 135.218C34.7044 135.148 34.6488 135.079 34.5917 135.012C33.8191 134.09 32.8562 133.475 31.8634 132.838C30.752 132.686 29.6435 132.349 28.5555 132.102C25.8689 131.489 23.1822 130.877 20.4941 130.266C19.9673 130.146 20.1912 129.335 20.7187 129.454C22.7593 129.917 24.7992 130.379 26.8398 130.842L29.8264 131.519C30.4227 131.653 31.1683 131.924 31.8699 132.021C32.216 132.069 32.5511 132.075 32.854 132.004C33.833 131.772 33.882 130.549 33.4606 129.823C32.9872 129.006 32.0938 128.495 31.3007 128.034C29.9267 127.231 28.4641 126.654 27.0359 125.989C26.7827 125.933 26.5288 125.877 26.2757 125.822C24.8006 125.497 23.1163 125.338 21.7277 124.743C21.3121 124.566 21.5396 123.911 21.9508 123.92C23.0278 123.943 24.1546 124.326 25.2074 124.554C26.3466 124.801 27.4873 125.047 28.6265 125.293C28.7414 125.318 29.4182 125.534 29.5199 125.487C29.585 125.455 29.6084 125.23 29.6296 125.081C29.6998 124.593 29.7503 124.079 29.675 123.589C29.5081 122.49 28.5914 121.973 27.6636 121.551C25.5989 120.612 23.3337 120.025 21.0801 119.789C20.5607 119.735 20.0412 119.701 19.5188 119.685C18.9056 119.666 18.4001 119.557 18.0891 120.162C17.6011 121.115 17.3318 122.34 17.1709 123.427ZM20.039 157.964C20.489 156.407 20.3668 154.745 20.6748 153.157C20.8343 152.337 21.0516 151.525 21.2887 150.725C21.4796 150.079 21.7986 149.392 21.8352 148.718C21.8374 148.672 21.784 148.647 21.7481 148.667C21.1131 149.031 20.6258 149.817 20.2636 150.434C19.8297 151.172 19.499 151.946 19.232 152.759C18.7 154.379 18.2632 156.332 18.9495 157.964C19.1537 158.45 19.8707 158.547 20.039 157.964ZM33.9457 137.343C33.5652 137.305 33.1847 137.233 32.805 137.148C33.2301 137.562 33.6223 138.062 33.8403 138.615C33.8747 138.19 33.9179 137.766 33.9749 137.344C33.9654 137.344 33.9552 137.344 33.9457 137.343ZM37.6003 169.75C38.2705 169.282 38.7593 168.628 39.3278 168.05C39.8875 167.482 39.0132 166.607 38.4534 167.175C37.9683 167.668 37.5469 168.283 36.9762 168.682C36.7011 168.873 36.5738 169.22 36.7545 169.528C36.9133 169.8 37.326 169.941 37.6003 169.75ZM41.3398 151.758C40.1158 151.229 38.9115 150.652 37.6303 150.271C36.865 150.043 36.5409 151.237 37.3018 151.464C38.482 151.815 39.5882 152.339 40.7157 152.827C41.4393 153.139 42.0686 152.073 41.3398 151.758ZM54.2668 151.387C54.5668 150.649 53.3698 150.33 53.075 151.059C52.7347 151.897 52.3455 152.715 52.006 153.552C51.7075 154.291 52.9037 154.61 53.1986 153.882C53.5381 153.043 53.9274 152.227 54.2668 151.387ZM67.0263 166.143C67.226 166.409 67.5582 166.553 67.8728 166.365C68.1355 166.207 68.2964 165.788 68.0945 165.519C67.5048 164.733 66.9077 163.957 66.2171 163.256C65.6566 162.688 64.783 163.563 65.3427 164.131C65.9595 164.756 66.5002 165.441 67.0263 166.143ZM68.851 83.3518C68.2833 83.7395 67.7857 84.2107 67.3014 84.6958C66.7373 85.2592 67.6123 86.1335 68.1757 85.5701C68.584 85.1619 68.9966 84.747 69.4752 84.42C69.7517 84.2312 69.8761 83.8793 69.6968 83.5735C69.5366 83.2998 69.1269 83.1637 68.851 83.3518ZM50.2881 103.26C50.6085 103.902 50.8975 104.532 50.9158 105.263C50.9356 106.059 52.1721 106.06 52.1523 105.263C52.1289 104.307 51.7763 103.478 51.3556 102.635C51 101.921 49.9332 102.549 50.2881 103.26ZM43.477 87.2713C42.8119 86.8279 42.1937 87.8998 42.8522 88.3395C43.3863 88.6951 43.9211 89.0521 44.4553 89.4077C45.1196 89.8511 45.7379 88.7792 45.0794 88.3395C44.5452 87.9839 44.0111 87.6276 43.477 87.2713ZM73.0186 115.225C73.132 116.011 74.3231 115.675 74.2112 114.897C74.0371 113.693 73.8249 112.506 73.4986 111.333C73.2849 110.567 72.0923 110.894 72.306 111.662C72.6323 112.834 72.8452 114.022 73.0186 115.225ZM77.3544 129.396C78.1505 129.379 78.1505 128.142 77.3544 128.159C76.6337 128.174 75.9255 128.364 75.2311 128.538C74.4578 128.731 74.7877 129.923 75.5597 129.73C76.1472 129.583 76.7449 129.409 77.3544 129.396ZM78.9546 157.942C79.2282 158.075 79.5084 158.195 79.785 158.321C80.3389 158.575 80.892 158.828 81.4451 159.082C82.5975 159.611 83.7484 160.143 84.8993 160.675C87.2024 161.741 89.5234 162.771 91.8322 163.826C94.1865 164.901 96.5347 165.991 98.88 167.087C99.9848 167.603 101.098 168.101 102.209 168.603C103.159 169.033 104.334 169.784 105.376 169.855C105.43 169.858 105.448 169.79 105.417 169.755C105.023 169.307 104.395 169.046 103.877 168.755C103.348 168.457 102.809 168.177 102.273 167.893C101.155 167.3 100.035 166.712 98.9061 166.141C96.6477 164.997 94.385 163.862 92.1218 162.729C89.8137 161.572 87.5086 160.409 85.1803 159.294C84.0842 158.768 82.9867 158.245 81.8885 157.723C81.2937 157.441 80.6988 157.158 80.1033 156.876C79.8465 156.755 79.5918 156.623 79.3292 156.514C78.9802 156.37 78.7146 156.399 78.3546 156.31C77.7671 156.165 77.5132 156.912 77.9639 157.238C78.3348 157.506 78.5302 157.735 78.9546 157.942ZM87.2103 170.627C87.3373 170.318 87.0715 169.943 86.7784 169.866C86.4274 169.773 86.1459 169.987 86.0178 170.298C85.6788 171.123 85.1956 171.88 84.5745 172.519C84.0191 173.091 84.8927 173.966 85.4488 173.394C86.2277 172.592 86.7873 171.656 87.2103 170.627ZM93.2838 150.77C93.8475 150.206 92.9729 149.332 92.4093 149.896L90.8067 151.499C90.2429 152.062 91.1177 152.937 91.6811 152.373L93.2838 150.77ZM109.726 148.156C110.878 148.494 112.222 148.805 113.008 149.788C113.046 149.836 113.111 149.775 113.088 149.727C112.082 147.641 109.198 146.91 107.201 146.179C105.789 145.662 104.339 145.233 102.878 144.85C103.024 143.183 102.621 141.395 102.481 139.736C102.332 137.964 102.21 136.187 102.148 134.41C102.084 132.597 102.068 130.771 102.128 128.958C102.187 127.151 102.422 125.366 102.525 123.565C102.534 123.391 102.292 123.382 102.24 123.527C101.633 125.198 101.374 127.049 101.176 128.811C100.973 130.627 100.905 132.437 100.931 134.262C100.958 136.14 101.067 138.012 101.217 139.884C101.288 140.77 101.37 141.656 101.448 142.542C101.507 143.219 101.535 143.89 101.673 144.545C100.791 144.328 99.908 144.124 99.0274 143.925C96.2194 143.291 93.3996 142.703 90.6033 142.017C89.2307 141.681 87.8776 141.278 86.5112 140.92C85.2242 140.583 83.8662 140.175 82.5456 140.024C82.0736 139.971 82.0136 140.615 82.3261 140.835C83.3994 141.589 84.8254 142.114 86.0659 142.536C87.3105 142.959 88.6043 143.265 89.88 143.578C92.5404 144.233 95.226 144.768 97.9077 145.326C100.586 145.882 103.268 146.435 105.916 147.122C107.191 147.453 108.462 147.785 109.726 148.156ZM116.04 115.06C116.728 115.464 117.35 114.395 116.664 113.992C115.766 113.465 114.81 113.069 113.845 112.683C113.105 112.386 112.787 113.583 113.516 113.876C114.383 114.223 115.233 114.587 116.04 115.06ZM118.533 161.021C119.223 161.421 119.846 160.352 119.157 159.952C118.19 159.392 117.132 159.018 116.13 158.528C115.417 158.178 114.791 159.246 115.506 159.596C116.508 160.086 117.566 160.46 118.533 161.021ZM119.654 134.932C118.987 135.566 118.096 135.865 117.256 136.197C116.524 136.488 116.845 137.683 117.585 137.39C118.631 136.975 119.697 136.596 120.529 135.806C121.107 135.257 120.231 134.383 119.654 134.932ZM112.27 99.5003C111.536 99.7885 111.858 100.984 112.599 100.694C113.421 100.371 114.27 100.125 115.092 99.8024C115.825 99.5149 115.504 98.3186 114.763 98.6098C113.941 98.9325 113.092 99.1776 112.27 99.5003ZM99.2435 85.4267C98.4639 85.2958 98.1318 86.4877 98.9147 86.6201C99.8862 86.784 100.843 86.9764 101.764 87.3327C102.508 87.6203 102.827 86.424 102.093 86.1401C101.171 85.7831 100.215 85.5914 99.2435 85.4267ZM94.9393 119.692C95.6542 119.34 95.027 118.274 94.3153 118.624C93.5653 118.992 92.7882 119.278 91.9699 119.452C91.1907 119.618 91.5225 120.811 92.2987 120.645C93.2197 120.448 94.0959 120.107 94.9393 119.692ZM90.874 100.391C90.1042 100.18 89.7787 101.374 90.5452 101.584C91.8938 101.954 93.2824 102.146 94.641 102.474C95.4153 102.662 95.7428 101.469 94.9697 101.282C93.6112 100.953 92.2225 100.761 90.874 100.391ZM73.6288 94.334C72.8459 94.4789 73.1796 95.6715 73.9573 95.5273C74.7855 95.3737 75.6248 95.3715 76.464 95.3708C77.2608 95.3708 77.2593 94.1335 76.464 94.1335C75.5106 94.1343 74.569 94.1599 73.6288 94.334ZM17.3845 100.797C19.4046 100.604 21.4284 100.449 23.4544 100.334C23.5488 100.328 23.6417 100.323 23.7361 100.318C23.747 100.296 23.7609 100.276 23.7748 100.255C24.4363 99.283 24.9228 98.312 25.345 97.2138C25.7489 96.169 26.1396 95.0913 26.7608 94.1482C27.4697 93.0733 28.4268 92.2319 29.4752 91.5032C30.111 91.9312 30.7015 92.4324 31.2415 92.9636C31.81 93.5219 32.685 92.6475 32.1165 92.0885C31.6366 91.6166 31.1237 91.1805 30.5822 90.7869C31.2078 90.4064 31.8458 90.0494 32.4677 89.6938C34.801 88.3629 37.1891 87.1315 39.6263 86.0062C40.7596 85.4816 41.9062 85.0163 43.0614 84.5444C43.6826 84.2912 44.2965 83.9649 44.9177 83.6715C44.873 83.2318 45.004 82.7401 45.3413 82.4511C45.5901 82.2389 45.7832 82.1599 46.0803 82.0106C46.1461 81.9872 46.1864 81.9733 46.2054 81.9653C46.1915 81.9682 46.1513 81.9806 46.0847 82.0026C45.9266 82.075 45.9149 82.0538 46.0473 81.9389C46.0554 81.6887 46.5485 81.1597 46.6612 80.9014C47.0541 80.0154 47.1763 79.0781 47.7558 78.2711C48.5548 77.159 49.8966 76.739 51.147 77.1158C51.2765 75.7783 51.3109 74.3823 51.815 73.1883C51.8289 73.1561 51.8736 73.1422 51.8933 73.1773C52.4194 74.0728 52.464 75.0701 52.5043 76.1032C52.5431 77.0726 52.5057 78.064 52.3792 79.0276C52.4596 79.0891 52.5416 79.1484 52.6264 79.2054C53.0252 79.4681 53.4547 79.6708 53.9061 79.8208C54.7658 80.1054 55.6665 80.229 56.5679 80.2722C58.8946 80.3834 61.2915 80.1485 63.5794 79.7498C65.8937 79.3459 69.4415 78.7394 71.5004 77.5811C72.8591 76.818 74.1124 75.8852 75.3833 74.9823C74.9224 73.4977 74.8046 71.9013 75.2684 70.6472C75.3241 70.4972 75.5589 70.4694 75.6043 70.6472C75.8947 71.8442 75.9796 73.0478 76.3659 74.2301C76.3725 74.2477 76.3784 74.266 76.385 74.2828C76.505 74.2009 76.6257 74.1204 76.7464 74.0399C77.0244 73.8563 77.4034 73.9938 77.5703 74.2565C80.2401 78.4643 84.4676 78.7057 88.9069 79.4571C93.7654 80.2795 98.6483 81.1678 103.32 82.7774C107.787 84.3176 112.056 86.5601 115.438 89.9089C116.204 90.6676 116.92 91.4754 117.596 92.319C116.942 92.4017 116.294 92.5297 115.653 92.7309C114.896 92.9694 115.221 94.1628 115.982 93.9243C116.805 93.6653 117.637 93.5372 118.477 93.4736C120.775 96.619 122.567 100.185 124.116 103.695C127.088 110.425 129.023 117.592 129.913 124.889C129.424 124.596 128.927 124.317 128.417 124.057C127.708 123.696 127.083 124.765 127.793 125.125C128.58 125.526 129.345 125.968 130.087 126.447C130.411 129.641 130.536 132.855 130.46 136.065C130.279 143.717 129.247 151.592 126.911 158.893C125.766 162.476 124.248 166.029 121.986 169.057C120.963 170.428 119.801 171.665 118.431 172.697C117.768 173.198 117.066 173.645 116.326 174.022C115.372 174.511 114.129 174.672 113.307 175.363C113.036 175.59 112.828 175.89 112.67 176.229C112.761 176.872 112.772 177.517 112.596 178.16C112.54 178.362 112.389 178.526 112.202 178.604C112.198 178.659 112.198 178.714 112.198 178.766C112.198 178.791 112.161 178.798 112.157 178.773C112.149 178.725 112.141 178.677 112.134 178.627C112.073 178.648 112.01 178.657 111.945 178.657C109.597 178.666 107.246 178.608 104.895 178.528C105.077 177.972 105.274 177.419 105.463 176.862C105.719 176.105 104.525 175.783 104.27 176.533C104.049 177.184 103.818 177.83 103.612 178.484C101.093 178.39 98.5746 178.278 96.0607 178.195C90.7139 178.016 85.369 177.958 80.0206 177.845C71.7148 177.669 63.3489 177.308 55.0307 177.661C54.7431 177.051 54.4212 176.453 54.1154 175.851C53.7554 175.14 52.6886 175.766 53.0479 176.475C53.2601 176.894 53.4796 177.307 53.6888 177.725C52.0038 177.813 50.321 177.929 48.6418 178.087C45.7759 178.355 42.9378 178.833 40.0748 179.13C37.1643 179.433 34.3166 179.379 31.4295 178.898C30.91 178.812 30.6042 178.498 30.4769 178.108C30.4725 178.106 30.4696 178.103 30.4666 178.098C30.3181 177.926 30.1791 177.781 30.0349 177.656C29.8637 177.545 29.6779 177.451 29.4599 177.367C29.0538 177.212 28.6302 177.118 28.1999 177.055C27.7273 176.984 27.248 176.977 26.7747 176.919C26.3766 176.868 25.9867 176.792 25.5974 176.699C24.8972 176.533 24.2321 176.314 23.5707 176.025C22.9942 175.773 22.4732 175.411 21.9815 175.016C20.9645 174.272 20.0836 173.323 19.3139 172.336C18.8654 171.76 18.4432 171.161 18.0598 170.539C17.3918 169.459 16.8233 168.338 16.2482 167.207C16.0397 166.872 15.8495 166.529 15.6754 166.179C16.7992 165.848 17.9333 165.578 19.1251 165.559C19.9212 165.546 19.9212 164.309 19.1251 164.322C17.7584 164.344 16.4663 164.663 15.1822 165.043C15.1193 164.877 15.0593 164.71 15.0037 164.54C14.8508 164.186 14.7242 163.822 14.6188 163.454C14.5574 163.287 14.4952 163.12 14.4337 162.954C14.2947 162.375 14.1557 161.795 14.0145 161.215C13.735 160.287 13.514 159.346 13.3516 158.392C13.2155 157.764 13.1101 157.131 13.0392 156.491C12.8226 154.94 12.647 153.392 12.6346 151.824C12.6529 150.858 12.715 149.893 12.8197 148.932C12.8643 148.28 12.9404 147.63 13.0421 146.986C13.1753 146.027 13.307 145.078 13.5279 144.131C13.6933 143.491 13.8586 142.85 14.024 142.21C14.4367 140.876 14.9239 139.567 15.4851 138.289C15.5159 138.209 15.6717 138.032 15.7661 138.03C15.8371 138.029 15.9366 138.094 15.9036 138.181C15.9007 138.188 15.8978 138.198 15.8941 138.205C15.927 138.133 15.9578 138.058 15.99 137.986C16.0178 137.918 16.1261 137.782 16.2095 137.783C16.2146 137.783 16.219 137.783 16.2248 137.784C16.2036 137.769 16.1831 137.749 16.1634 137.726C15.608 137.069 15.2481 136.204 14.8508 135.443C14.5215 134.815 14.2113 134.154 14.1213 133.444C14.043 132.821 14.1491 132.207 14.5406 131.703C14.9854 131.129 15.8232 130.86 15.3578 130.031C14.8296 129.088 14.0518 128.27 14.8259 127.198C15.2203 126.652 15.8451 126.352 16.3082 125.877C16.8416 125.329 17.0955 124.594 17.0816 123.844C17.0487 123.862 17.0055 123.854 16.9902 123.807C16.5424 122.452 16.8665 120.965 17.326 119.646C17.5762 118.93 18.1067 118.733 18.7227 118.698C16.0522 113.479 13.5528 108.176 11.3249 102.752C11.251 102.574 11.1786 102.396 11.1054 102.218C10.9971 101.952 11.2261 101.598 11.4903 101.539C13.4167 101.117 15.4229 100.983 17.3845 100.797Z" fill="#142739"/>
<path fill-rule="evenodd" clip-rule="evenodd" d="M37.9656 40.9802C39.0265 28.041 42.2575 16.5808 57.4373 16.0922C64.2878 16.1534 71.2811 17.6093 77.5807 20.3031C92.8922 27.9833 97.7504 56.0469 84.26 67.3437C84.3405 67.3891 84.3603 67.5215 84.2651 67.5852C81.4782 69.4604 78.3804 71.0042 75.2774 72.3007C67.0133 75.7966 57.2836 77.3148 48.8556 73.5226C35.9923 68.0476 35.7999 52.8122 37.9656 40.9802Z" fill="#F4C2C2"/>
<path fill-rule="evenodd" clip-rule="evenodd" d="M12.6478 34.9492C12.1188 34.4729 11.7252 33.8482 11.5254 33.1477C11.3432 32.5091 11.3308 31.8117 11.524 31.1745C11.731 30.491 12.1781 29.9467 12.0771 29.2354C12.0661 29.1658 12.0522 29.0931 12.031 29.0204C11.6447 27.6813 10.6935 26.7148 11.0338 25.2303C11.1296 24.8112 11.3103 24.4339 11.5628 24.137C11.535 23.8154 11.5101 23.4906 11.4896 23.1659C10.9321 21.8592 10.9518 20.3066 11.5474 19.0201C11.6198 18.3613 11.7296 17.7087 11.8839 17.067C11.813 16.4995 11.9118 15.8748 12.0939 15.3784C12.4144 14.505 12.811 13.6443 13.2405 12.7978C13.19 12.5663 13.2127 12.3217 13.34 12.1041C13.5726 11.7087 13.8792 11.3611 14.1931 11.0213C14.4148 10.625 14.6379 10.2319 14.8596 9.84396C14.9621 9.66565 15.0755 9.46781 15.2006 9.25834C14.8604 8.62647 14.6782 8.01071 15.0381 7.26771C15.1735 6.98858 15.5452 6.78276 15.8518 6.80098C16.1861 6.82095 16.5241 6.83595 16.8636 6.84876C17.4987 6.08205 18.2179 5.39378 18.9884 4.99758C19.7691 4.33579 20.5607 3.6863 21.3304 3.0229C21.5485 2.8342 21.768 2.64558 21.9853 2.45689C21.9875 2.45228 21.9889 2.44606 21.9904 2.44145C22.1514 1.85538 22.3321 1.27701 22.5128 0.695631C22.6255 0.335289 22.6599 -0.0420303 23.0103 -0.238407C23.7434 -0.648211 24.8702 -0.71311 25.7109 -0.78269C25.7943 -0.856955 25.8777 -0.929607 25.9611 -1.00387C25.5792 -2.02139 25.6472 -3.10228 26.1279 -4.12134C26.2918 -4.46771 26.8611 -4.62391 27.1735 -4.39505C27.8934 -3.86621 28.748 -3.67905 29.5938 -3.75638C30.8369 -4.71208 35.8495 -9.03356 36.6243 -9.48968C36.6339 -9.50607 36.6412 -9.52246 36.6514 -9.5387C37.0868 -10.2343 37.6157 -10.7928 38.2106 -11.2407C38.2955 -11.3293 38.3803 -11.418 38.4652 -11.5068C38.3906 -12.037 38.1938 -12.5491 37.8777 -12.9774C37.8433 -13.0269 37.8053 -13.0748 37.7665 -13.1212C37.2126 -13.7799 37.8887 -14.6273 38.6613 -14.2825C38.7169 -14.2578 38.7725 -14.233 38.8281 -14.2068C39.4222 -13.9417 40.08 -13.6536 40.7648 -13.4105C41.015 -13.5044 41.2704 -13.5895 41.5031 -13.6831L43.9973 -14.6863C44.4085 -14.8514 44.8424 -14.9914 45.2397 -15.1854C45.3779 -16.1069 46.3013 -16.7113 47.2598 -16.6797C47.2042 -16.8566 47.1215 -17.0284 47.0052 -17.1912C46.9715 -17.2391 46.9342 -17.2856 46.8954 -17.3304C46.4023 -17.9042 47.0608 -18.968 47.7661 -18.4577C47.8151 -18.4222 47.8663 -18.3866 47.9161 -18.3511C48.1114 -18.2136 48.3119 -18.0846 48.5146 -17.9596C48.8394 -18.1013 49.2045 -18.1336 49.5872 -17.9838C50.4337 -17.6521 51.2144 -17.3148 51.96 -16.7949C51.99 -16.7737 52.0214 -16.756 52.0522 -16.736C52.4224 -17.1832 53.0099 -17.4823 53.5389 -17.479C53.5499 -17.479 53.5579 -17.4792 53.5674 -17.4794C53.9633 -18.0822 54.6883 -18.4326 55.3885 -18.3475C55.341 -19.2127 56.2073 -19.9848 56.9953 -20.0787C57.9164 -20.1881 58.7461 -19.6532 59.0227 -18.7545C59.0995 -18.5043 59.1764 -18.2539 59.2532 -18.0035C59.9687 -18.3647 60.7231 -18.6413 61.5118 -18.7794C63.3066 -19.0939 65.0618 -18.759 66.7915 -18.2604C66.9649 -18.2106 67.1376 -18.1594 67.3102 -18.1084C67.5568 -18.3943 67.788 -18.687 68.009 -18.9603C68.3909 -19.4319 69.3077 -19.0546 69.2455 -18.4484C69.203 -18.0301 69.3728 -17.7292 69.6464 -17.5154C69.9464 -17.4715 70.2369 -17.4581 70.6744 -17.467C71.2531 -17.4787 71.5165 -17.4968 72.1216 -17.7328C72.4033 -17.8425 72.7545 -18.1313 72.9184 -18.3904C73.5484 -19.3843 75.1485 -19.6519 75.9109 -18.7044C76.7128 -19.0556 77.7254 -18.5712 78.1703 -17.8884C78.4029 -17.5313 78.8895 -17.3316 79.5012 -17.16C79.9599 -17.0314 80.4296 -16.9339 80.9016 -16.8487C81.1116 -17.134 81.5542 -17.3253 81.8791 -17.0861C82.0993 -16.9236 82.3129 -16.7567 82.5237 -16.5857C84.1479 -16.3617 85.7643 -16.3538 87.3133 -16.9875C88.6247 -17.5241 89.8289 -16.0585 89.6124 -14.8282C89.9922 -14.6305 90.4043 -14.4989 90.7795 -14.2916C91.598 -13.8392 92.27 -13.124 92.6797 -12.2837C92.7532 -12.1332 92.8195 -11.9805 92.8827 -11.8269C93.1886 -11.5778 93.4911 -11.322 93.7863 -11.0521C94.2779 -11.3042 94.7679 -11.5563 95.2595 -11.8083C95.6273 -11.997 96.2472 -11.8655 96.3199 -11.3769C96.4388 -10.5728 96.7279 -9.90629 97.1406 -9.34803C98.4824 -8.64293 99.7731 -7.8512 101.008 -6.9713C102.429 -6.52594 103.939 -6.26613 105.18 -5.9739C105.605 -5.87337 105.837 -5.31819 105.597 -4.94863C105.344 -4.55741 105.091 -4.16619 104.839 -3.77497C105.545 -3.0853 106.208 -2.36469 106.834 -1.61927C108.576 0.452791 110.034 2.72446 111.338 5.1306C111.855 5.33934 112.371 5.54655 112.887 5.75529C113.385 5.95635 113.609 6.53473 113.206 6.95997C113.014 7.16249 112.842 7.37592 112.696 7.60017C113.427 8.81093 114.288 9.91508 115.492 10.6388C115.858 10.8583 116.133 11.2032 116.28 11.5944C116.406 11.6779 116.529 11.7676 116.651 11.8588C116.991 12.1155 117.197 12.6753 116.798 13.0078C116.518 13.2428 116.256 13.5212 116.033 13.8289C115.985 14.0037 115.936 14.1799 115.886 14.3547C117.005 15.3845 117.936 16.5815 118.634 17.9237C118.8 17.8974 118.97 17.9144 119.107 18.0165C120.356 18.9397 120.394 20.4102 119.891 21.7247C120.194 23.7056 119.999 25.7359 119.415 27.655C120.183 28.422 120.645 29.5292 120.834 30.5962C121.166 32.4704 121.19 35.3528 121.276 37.2657C122.114 38.0745 122.711 39.1213 123.043 40.2471C123.323 40.3863 123.603 40.5254 123.882 40.6646C124.131 40.7883 124.314 41.1146 124.298 41.3898C124.227 42.7212 123.678 43.7728 122.95 44.7251C122.692 45.4597 122.31 46.1372 121.809 46.7869C121.463 47.2318 121.125 47.6591 120.826 48.1398C120.795 48.1873 120.777 48.2327 120.763 48.2634C120.88 48.39 120.978 48.6007 121.063 48.7507C121.777 50.0092 121.788 51.4842 120.774 52.581C121.156 52.8934 121.168 53.5241 120.831 53.9111C118.638 56.4178 116.809 59.4652 113.765 60.7968C113.751 60.8202 113.739 60.8429 113.728 60.8663C114.345 62.3508 114.428 63.1227 113.925 64.6563C113.921 64.6702 113.917 64.6826 113.912 64.6965C113.643 65.5006 113.149 66.7891 112.257 67.0393C111.975 67.1183 111.699 67.1542 111.425 67.152C110.717 67.8346 110.011 68.518 109.304 69.2014C109.242 69.5401 109.204 69.8818 109.191 70.2264C109.171 70.803 108.629 71.2705 108.044 71.1C107.839 71.04 106.701 69.9345 106.493 69.9404C106.387 70.0457 106.285 70.1511 106.183 70.2572C105.808 70.6515 105.287 71.2734 105.244 71.6861C105.16 72.4639 104.65 73.355 103.826 73.5123C103.517 73.8262 103.022 73.9206 102.644 73.5109C102.619 73.4845 102.594 73.4582 102.568 73.4355C102.528 73.4304 102.489 73.426 102.449 73.4216C102.266 73.966 102.084 74.5103 101.9 75.0525C101.54 76.1229 100.164 76.8107 99.1872 76.1866C99.0296 76.2802 98.875 76.3812 98.7204 76.4814C98.4854 76.6314 98.2474 76.7843 98.0032 76.9285C97.9892 76.9687 97.9753 77.0089 97.963 77.0477C97.8053 77.5284 97.1499 77.7867 96.7464 77.5101C96.6212 77.5504 96.493 77.5826 96.3631 77.6089C95.6814 77.7435 94.9951 77.7062 94.3366 77.4787C93.8651 77.3184 93.4153 77.0104 92.9083 76.9687C92.8767 76.9658 92.844 76.968 92.8118 76.9672C92.3982 77.8152 91.453 78.5454 90.7081 78.7935C89.7324 79.1191 88.7339 79.0027 87.8453 78.6047C87.6056 79.0839 87.3045 79.5383 86.9448 79.9575C86.7453 80.1895 86.3852 80.1405 86.1796 79.9575C85.7891 79.6115 85.4013 79.2639 85.0135 78.9149C84.7333 78.8074 84.4501 78.6771 84.1553 78.5571C83.2319 78.1796 82.2193 78.023 81.3654 77.4779C80.9601 77.2189 80.5789 76.8889 80.2643 76.5063C79.6724 76.1646 79.1288 75.7388 78.6393 75.2508C78.3949 75.2522 78.1403 75.1952 77.893 75.07C76.8584 74.544 76.3148 73.4736 76.2665 72.379C75.4287 70.4072 74.9341 68.3044 74.798 66.1518C74.7549 65.445 74.7468 64.7324 74.801 64.0256C74.8383 63.5274 74.9634 63.1952 75.1522 62.7452C75.2158 62.5981 75.2729 62.4635 75.3175 62.315C75.3066 61.8387 75.3007 61.3631 75.2941 60.8882C75.1661 60.4873 74.9371 60.1149 74.6188 59.801C74.1256 59.3152 73.9003 58.3069 74.3481 57.707C74.6407 57.3192 74.9312 56.9307 75.2231 56.5429C75.1412 54.8769 74.7424 52.2268 75.627 51.9488C75.5912 51.7008 75.5151 51.4564 75.4719 51.2106C75.2648 50.0297 75.3885 48.9731 76.0163 47.94C76.148 47.7257 76.2592 47.5354 76.3499 47.3496C76.407 47.0094 76.4648 46.6691 76.5218 46.3289C76.6096 45.805 76.6967 45.2761 76.7706 44.7441C76.8094 44.0666 76.8445 43.3893 76.8833 42.7104C76.9191 42.0857 76.9594 41.4609 77.0011 40.8347C76.9835 40.5548 76.9594 40.2749 76.9235 39.995C76.7121 38.3265 76.0302 37.7095 74.8493 36.5497C74.6634 36.5203 74.4798 36.4878 74.2991 36.4508C73.4562 36.276 72.5753 36.0054 71.7082 36.1028C70.7666 36.208 69.9244 36.6146 69.0091 36.0951C68.7406 35.9404 68.148 35.5136 68.0975 35.175C68.0938 35.1534 68.0894 35.1348 68.0836 35.1209C68.0199 35.1116 67.938 35.1038 67.8868 35.1023C67.1602 35.0776 66.4666 35.3637 65.7335 35.2848C64.8665 35.192 64.0909 34.8069 63.5802 34.2364C62.9268 34.3972 62.2588 34.4699 61.5806 34.3802C61.0114 34.306 60.5014 34.1203 59.9973 33.8451C59.6314 33.6472 59.747 33.59 59.3483 33.7508C58.441 34.1188 57.6201 34.6044 56.5987 34.3524C56.0682 34.2224 55.611 33.9363 55.2254 33.5513C55.1347 33.4616 54.9803 33.3271 54.8764 33.2003C54.3913 33.4461 53.1701 34.0013 52.9689 34.0508C52.3997 34.1899 51.7975 34.1683 51.2437 33.9827C50.8376 33.8466 50.3393 33.4755 49.9823 33.3997C49.5206 33.3008 48.4941 33.9441 47.9424 34.1652C46.9744 34.5533 45.9494 34.6493 44.9697 34.2487C44.6324 34.1111 43.9775 33.5622 43.7251 33.5668C43.3154 34.0724 42.1718 36.8389 41.8287 37.8487C40.4392 41.931 40.0785 54.6779 40.7202 57.9301C40.7451 58.026 40.7714 58.1204 40.7977 58.2162C41.5857 61.0441 42.4067 63.9202 43.7251 66.5557C44.9697 69.039 46.6898 71.2749 49.1584 72.6314C51.7185 74.0384 54.7235 74.4079 57.6018 74.2177C59.4551 74.0969 61.2777 73.7245 63.0702 73.2577C64.0075 73.0148 64.936 72.7441 65.8608 72.4624C66.2639 72.3402 66.6737 72.2261 67.0695 72.0834C67.7682 71.8317 68.1341 71.8112 68.8035 72.1346C69.413 72.4287 69.5689 73.2958 69.2521 73.8416C68.7355 74.7327 67.7895 74.7942 66.8763 75.0539C65.9457 75.3188 65.0121 75.572 64.0719 75.7995C62.2713 76.2327 60.4414 76.5648 58.5954 76.7185C55.2905 76.995 51.8853 76.5685 48.8775 75.1256C48.5373 74.9618 48.2095 74.7869 47.8927 74.5981C48.0097 74.762 48.129 74.9259 48.2497 75.0883C48.5834 75.5383 48.3361 76.3036 47.8678 76.5495C47.7193 76.627 47.5707 76.7009 47.4215 76.7741C47.401 76.8216 47.3798 76.8699 47.3549 76.9175C46.9269 77.7772 46.0299 78.285 45.1167 78.5045C44.031 78.7642 42.8164 78.5798 41.7123 78.5476C40.6895 78.5169 39.6659 78.4854 38.6445 78.4547C38.403 78.4489 38.1623 78.4408 37.9209 78.4328C36.7056 78.3962 35.4925 78.3603 34.2794 78.323C33.1972 78.2908 33.2477 78.3742 32.2322 77.9411C31.7793 77.7465 31.4083 77.4714 31.0966 77.1048C30.9013 77.0185 30.7133 76.9189 30.5318 76.8063C29.9509 76.4448 29.4343 75.959 28.9587 75.4242C28.1503 75.6788 27.0169 75.4425 26.8596 74.4262C26.6057 72.8012 24.4941 72.1068 23.5079 70.9318C22.7118 69.9835 22.1433 68.7419 22.1726 67.55C20.1664 66.5784 19.0747 64.0198 18.8201 61.8482C18.7008 60.8414 18.7191 59.7637 18.5479 58.7401C18.4718 58.6581 18.4038 58.5718 18.3467 58.4789C17.8433 57.6638 17.4043 56.8239 17.0173 55.9642C16.4919 55.5852 15.8598 55.3518 15.1984 55.313C13.5719 55.2193 13.2661 53.0251 14.8164 52.4961C14.8238 52.4924 14.8304 52.491 14.8377 52.488C14.4177 51.4366 14.4528 50.1921 14.9635 49.1956C14.9416 49.088 14.9218 48.9812 14.9013 48.8729C14.0314 47.9371 13.5317 46.6369 13.5873 45.3704C13.19 45.0902 12.7451 44.8736 12.2578 44.739C11.5057 44.532 11.5006 43.6135 12.0574 43.2022C12.2812 43.0367 12.4671 42.8434 12.6215 42.63C12.2366 41.4733 12.3881 40.1358 13.1746 39.1863C12.6756 38.5461 12.1759 37.9059 11.6769 37.2657C11.3462 36.842 11.1713 36.1229 11.6769 35.7208C12.0003 35.4626 12.3229 35.2059 12.6478 34.9492Z" fill="#2C66D9"/>
<path fill-rule="evenodd" clip-rule="evenodd" d="M49.0931 58.9787C48.5627 58.0429 46.9801 58.1951 46.7379 59.2867C46.2477 61.5 48.8861 63.5442 50.8901 63.5955C52.8809 63.6459 55.1154 61.95 54.8272 59.8084C54.7562 59.2787 54.0487 59.343 53.8072 59.6752L53.7136 59.8025C53.0587 60.6827 52.1946 61.5936 50.9794 61.3793C50.4752 61.2907 50.0179 60.9754 49.7136 60.5708C49.3463 60.0813 49.3865 59.4974 49.0931 58.9787ZM61.7553 42.7853C61.4853 42.7108 61.2131 42.7397 60.9738 42.8414C60.4405 42.9393 59.9942 43.3846 59.8376 43.8933C59.8251 43.9372 59.8112 43.9803 59.7959 44.0235L59.7725 44.0879L59.8361 43.9247C59.8068 44.085 59.6759 44.254 59.6291 44.415C59.5712 44.6132 59.5573 44.8379 59.5771 45.0559C59.4074 45.0581 59.2376 45.0639 59.0679 45.0786L58.904 45.0932C57.9887 45.1781 56.9834 45.3347 56.4405 46.1256C56.1361 46.5704 56.4222 47.3709 56.9819 47.4565C57.8438 47.5889 58.5864 47.1119 59.4461 47.016C60.2583 46.9253 61.1077 46.9772 61.9096 47.1243C63.5647 47.4265 65.0851 48.0981 66.6984 48.5188L66.9179 48.5745L66.9171 48.5737C67.1937 48.6403 67.5076 48.2562 67.2339 48.0308C65.9418 46.9692 64.2875 46.1088 62.6581 45.5849C62.8952 45.2066 62.9691 44.7091 62.8067 44.3037C62.7818 44.2196 62.7503 44.1377 62.7174 44.0564L62.6486 43.8889C62.642 43.8099 62.6267 43.7317 62.6047 43.6551L62.6018 43.6317L62.5996 43.6331C62.4781 43.2387 62.1613 42.8972 61.7553 42.7853ZM45.2709 42.8464C44.9175 42.4927 44.4207 42.5449 44.052 42.8233L44.003 42.8616C43.6554 43.0161 43.3679 43.3537 43.1791 43.6665C42.983 43.9913 42.8528 44.322 42.8477 44.6798C41.9923 44.6827 41.1729 44.9396 40.5444 45.6303C40.3417 45.8534 40.2034 46.1973 40.3147 46.4995L40.3812 46.6795C40.592 47.2501 41.5402 47.5794 41.8629 46.9077L41.8775 46.8748C42.2199 46.0773 43.534 46.1614 44.2327 46.2427C44.72 46.2997 45.2007 46.4212 45.6712 46.5565C45.8365 46.6041 46.0004 46.656 46.165 46.7094L46.3289 46.7621C46.416 46.7907 46.8718 47.038 46.5887 46.9794C46.5126 46.9641 46.4548 47.0745 46.5323 47.1119C46.8703 47.2736 47.2311 46.9516 47.2084 46.5887C47.1696 45.9588 46.1687 45.6127 45.6872 45.3954L45.6587 45.3822C45.4743 45.2973 45.2804 45.2154 45.0814 45.1393C45.1934 44.9725 45.2863 44.7866 45.3631 44.5876C45.4363 44.3996 45.4846 44.2167 45.5116 44.0169C45.538 43.9189 45.538 43.8216 45.5116 43.7236L45.5073 43.6956C45.5212 43.631 45.5277 43.5642 45.527 43.4969L45.5292 43.4708H45.527C45.5175 43.2352 45.4239 42.9993 45.2709 42.8464ZM50.9172 49.5585C49.5592 49.9778 47.3196 51.1214 48.0271 52.8861C49.0148 54.506 51.6349 53.3156 52.9044 52.7917C54.045 52.4135 54.6391 54.0129 53.5358 54.4951C44.4222 58.1021 44.4559 48.5825 50.5865 48.7222C51.2618 48.7376 51.283 49.4188 50.9172 49.5585ZM62.9749 37.1461L62.743 37.0784C61.5401 36.7297 60.3117 36.1276 59.2427 37.0671C58.8235 37.4361 58.7372 38.2028 59.0371 38.663C59.7212 39.7115 60.7353 39.5514 61.8394 39.6407C62.6808 39.7088 63.5091 39.9559 64.2941 40.2647C64.9351 40.5173 65.5306 40.8728 66.0918 41.2693C66.6442 41.6591 67.021 42.2685 67.5873 42.6194C67.7944 42.748 68.0344 42.6157 68.1083 42.4071C68.3724 41.6671 67.9268 40.7453 67.5493 40.1148C67.0883 39.3457 66.3881 38.7166 65.636 38.2407C64.8114 37.7194 63.9005 37.4184 62.9749 37.1461ZM45.4399 36.3499C43.4059 36.3492 41.4487 37.481 40.311 39.1401C39.9247 39.7038 40.2078 40.5388 40.7632 40.8634C41.3858 41.2277 42.0509 40.9653 42.4613 40.4433L42.4855 40.4117C43.1381 39.5425 43.9796 38.8579 44.9761 38.4123C45.4626 38.1947 46.0004 38.0182 46.5265 37.9287L46.6969 37.8995C46.9355 37.8596 47.2113 37.8214 47.4271 37.8588C47.5427 37.8739 47.6488 37.9121 47.7461 37.9703C47.6993 38.073 47.8208 38.1966 47.9327 38.1351C48.4383 37.8574 48.3761 37.362 47.9591 36.9769C47.3679 36.4321 46.2031 36.35 45.4399 36.3499Z" fill="black"/>
</g>
</g>
<defs>
<linearGradient id="paint0_linear_3661_571" x1="59.5" y1="0" x2="59.5" y2="119" gradientUnits="userSpaceOnUse">
<stop stop-color="#833AB4"/>
<stop offset="0.5" stop-color="#FD1D1D"/>
<stop offset="1" stop-color="#FCB045"/>
</linearGradient>
<clipPath id="clip0_3661_571">
<rect width="119" height="119" fill="white"/>
</clipPath>
</defs>
</svg>
