<svg width="119" height="119" viewBox="0 0 119 119" fill="none" xmlns="http://www.w3.org/2000/svg">
<g clip-path="url(#clip0_3661_457)">
<circle cx="59.5" cy="59.5" r="57" stroke="url(#paint0_linear_3661_457)" stroke-width="5"/>
<circle cx="59.78" cy="59.78" r="44.78" fill="#FF5678"/>
<mask id="mask0_3661_457" style="mask-type:alpha" maskUnits="userSpaceOnUse" x="15" y="15" width="90" height="90">
<circle cx="59.78" cy="59.78" r="44.78" fill="#C4C4C4"/>
</mask>
<g mask="url(#mask0_3661_457)">
<path fill-rule="evenodd" clip-rule="evenodd" d="M46.2257 73.8202C44.2935 75.221 44.601 77.9772 45.1828 79.9797C46.0393 82.9284 47.7454 85.6579 49.6916 88.0107C53.1443 92.1847 59.0057 96.8715 64.4087 93.2071C69.2201 89.9436 72.2552 83.3585 73.3028 77.8118C73.6266 76.0977 74.0579 73.5435 72.5365 72.2549C70.2875 70.3501 66.3201 70.6966 63.605 70.9418C61.817 71.1032 60.0918 71.6512 58.3248 71.3941C54.2194 70.7958 49.6502 71.3376 46.2257 73.8202Z" fill="#FF5678"/>
<path fill-rule="evenodd" clip-rule="evenodd" d="M129.466 95.6627C125.551 100.628 118.896 101.413 112.986 101.364C109.437 101.334 105.881 101.067 102.401 100.344C100.525 99.9541 98.662 99.4375 96.8495 98.8168C95.6522 98.4068 93.8699 98.2019 93.3603 96.919C92.0164 93.5345 93.0053 89.2897 93.5586 85.8542C93.8401 84.1067 94.0516 82.3489 94.3253 80.6001C94.5005 79.4811 94.5844 78.2432 95.0534 77.1964C95.6023 75.9702 96.2958 76.215 97.4572 76.5537C99.0569 77.0208 100.7 77.2149 102.344 77.4661C106.359 78.0791 109.861 79.3153 113.51 81.0674C117.117 82.7996 120.617 84.5098 123.835 86.9184C125.465 88.1393 126.87 89.4643 128.179 91.02C129.19 92.222 130.698 94.0984 129.466 95.6627ZM112.355 117.717C112.324 118.252 106.189 116.638 105.382 116.457C100.085 115.269 94.6827 113.915 89.6821 111.769C85.0144 109.765 80.9017 107.473 77.2286 103.913C75.5166 102.254 73.9766 100.507 72.503 98.6457C71.7645 97.7129 70.7555 97.8212 69.9319 97.0322C69.1911 96.3219 68.6229 95.7673 68.8545 94.7057C70.7056 95.1934 74.1237 98.2595 76.0428 96.7111C77.1365 95.8287 75.6196 94.9068 74.9191 94.3955C73.6027 93.4338 72.4769 92.2475 71.4303 91.0024C73.2273 91.3508 74.8998 92.0237 76.4636 92.9605C77.1584 93.3767 79.5399 94.8857 80.0943 93.4472C80.4355 92.5616 78.8207 91.4487 78.3173 90.9587C77.0808 89.7558 75.7464 88.3515 75.09 86.7341C76.7129 86.3577 78.2425 87.6119 79.3477 88.6334C80.5743 89.7677 82.0781 90.958 83.1068 92.2649C83.6374 92.9389 83.7529 93.7351 84.1674 94.4621C84.6339 95.28 85.38 95.9812 86.093 96.5863C87.467 97.7526 89.0739 98.6113 90.7233 99.3215C94.4924 100.944 98.5322 102.093 102.55 102.898C104.521 103.294 106.443 103.476 108.444 103.543C109.999 103.595 110.686 104.06 111.28 105.492C112.886 109.369 112.595 113.633 112.355 117.717ZM66.2195 88.182C65.3205 89.0231 64.1524 89.5507 63.2129 90.3593C62.3861 91.0708 61.4325 91.8299 60.5097 92.4053C59.5245 93.0193 58.7885 92.5887 57.9016 92.0331C56.8604 91.3812 55.6632 91.1169 54.5908 90.5336C50.8828 88.5154 46.3466 83.5704 47.0388 79.0299C47.332 77.1056 48.327 75.212 50.1337 74.3387C51.7746 73.546 54.1597 73.1059 55.9153 73.7688C56.9054 74.1427 57.6139 74.968 58.2484 75.7795C58.9881 76.7255 59.2714 76.5764 60.0247 75.664C61.373 74.0319 63.5961 72.5999 65.794 72.6343C66.8862 72.6517 67.9712 72.8819 68.9552 73.3352C69.0885 73.3968 69.1626 73.5828 69.2966 73.6458C69.4609 73.7233 69.7308 73.5622 69.845 73.6346C70.1332 73.817 70.4209 74.3867 70.5869 74.6758C71.2536 75.8358 72.4542 78.1107 71.2445 79.0875C71.2437 79.0879 71.2982 80.409 71.2817 80.5595C71.1963 81.3477 70.9239 81.9983 70.5729 82.7192C69.5187 84.8843 67.9627 86.5513 66.2195 88.182ZM68.0118 106.502C67.1603 106.767 66.243 104.098 67.0599 103.672C67.8387 103.266 68.7827 106.262 68.0118 106.502ZM54.6375 103.311C54.3425 104.319 54.2179 105.463 53.4968 106.284C52.8365 105.5 52.7713 104.054 53.4117 103.249C53.7773 102.789 54.96 102.21 54.6375 103.311ZM81.887 85.6493C81.8823 85.6748 82.9117 86.1672 82.4095 86.7055C81.7233 87.4408 81.8175 86.0097 81.887 85.6493ZM86.141 77.4338C86.1293 78.453 83.9716 78.2069 83.9869 77.1818C84.0058 75.9201 86.1538 76.3533 86.141 77.4338ZM83.5654 68.9153C83.779 67.9821 87.5322 66.6839 87.4299 68.3104C87.3787 69.1257 83.1125 70.8993 83.5654 68.9153ZM45.09 100.562C44.6694 101.068 44.0717 101.267 43.5676 101.655C43.0387 102.062 42.6607 102.59 42.1989 103.068C40.9304 104.379 39.4036 105.457 38.0351 106.662C35.5194 108.876 33.1094 111.257 30.3202 113.135C25.3358 116.491 19.5555 118.326 13.8174 119.934C13.342 120.067 11.9727 120.604 11.5024 120.204C10.9951 119.772 11.2531 118.253 11.2765 117.679C11.3716 115.324 11.6462 112.941 11.6164 110.59C11.6041 109.624 11.3213 108.251 11.8251 107.367C12.3878 106.38 13.9589 106.092 14.9305 105.72C17.8842 104.591 20.7295 102.687 23.3386 100.923C26.5458 98.7548 29.785 96.5506 33.0856 94.5267C36.3192 92.5437 39.8862 91.2158 43.4933 90.0832C43.6604 90.4344 41.9392 91.5645 41.7424 91.7229C40.7988 92.4826 39.7722 93.2701 39.0717 94.2729C38.5757 94.983 38.0671 96.5895 39.4365 96.6307C40.1002 96.6506 41.0816 96.0085 41.6836 95.8009C42.6777 95.4578 43.7022 95.217 44.7422 95.0603C43.8481 96.0446 40.8177 97.8129 41.3691 99.45C41.904 101.039 44.9983 99.1848 46.0633 99.1848C45.8888 99.7388 45.4499 100.13 45.09 100.562ZM8.53422 104.996C6.55254 105.693 4.52138 106.089 2.47621 106.539C0.526796 106.968 -1.27504 107.291 -3.2718 107.04C-6.0285 106.693 -9.07927 105.552 -9.42877 102.419C-9.84324 98.7075 -7.22201 95.2968 -4.9713 92.634C-2.23202 89.3942 0.843807 86.4978 4.17741 83.8753C7.50718 81.2551 11.1013 78.9454 14.8666 76.9954C17.7311 75.5118 20.9664 74.6111 23.9953 73.4976C24.5716 73.2859 26.1653 72.5417 26.7042 73.1585C27.1399 73.6573 26.5471 74.4881 26.3486 74.9512C25.9613 75.8541 25.908 76.7631 25.808 77.7324C25.3615 82.0614 24.8238 86.3891 24.5765 90.7368C24.5077 91.9483 24.3862 93.216 24.4569 94.4284C24.496 95.1 24.8455 95.9552 24.6128 96.6109C24.1654 97.8713 22.1166 98.7056 21.0308 99.2687C19.0871 100.277 17.0287 101.029 15.0649 101.993C12.9082 103.052 10.8083 104.196 8.53422 104.996ZM36.0167 76.8675C36.5607 76.7928 37.3754 76.6446 37.8603 76.9971C38.4927 77.4565 38.3268 78.0959 37.7427 78.4292C37.2815 78.6927 36.202 78.7647 35.7464 78.5256C34.9701 78.1186 35.1015 76.9934 36.0167 76.8675ZM39.029 86.8917C38.5895 87.6238 36.9832 88.1039 37.1231 86.7377C37.2431 85.568 39.8386 85.5436 39.029 86.8917ZM38.4328 66.2682C39.1394 66.5419 40.4217 66.7761 40.6312 67.6851C40.8262 68.531 40.0246 68.4751 39.446 68.2422C38.9702 68.0511 36.8505 66.2535 38.4328 66.2682ZM149.141 98.5402C148.728 96.9341 149.043 95.1562 148.815 93.5113C148.594 91.9167 148.196 90.4514 147.626 88.9487C146.363 85.6219 144.916 82.6272 142.868 79.7075C139.012 74.2092 134.538 69.3661 129.136 65.3501C123.802 61.3854 117.896 58.1633 111.64 55.9051C105.006 53.5103 98.3275 52.6769 91.3315 52.2178C89.2421 52.0808 87.1549 51.9184 85.0775 51.6545C83.5591 51.4617 81.6557 51.2241 80.1546 51.6891C79.2116 51.9815 78.6846 52.8038 79.7121 53.3436C80.4404 53.7262 81.3941 53.7721 82.1987 53.8738C81.2268 56.9611 79.6456 60.0592 77.1397 62.185C74.6932 64.2606 71.4195 64.9721 68.332 65.4985C66.6577 65.7836 64.7831 66.0045 63.0829 65.8813C62.0079 65.8038 61.1692 65.3061 60.7354 66.4132C60.4345 67.1825 60.2921 68.0265 59.8952 66.865C59.4259 65.4919 59.1956 65.5006 57.7358 65.1105C54.7502 64.313 51.3274 63.5854 48.7228 61.8604C46.0206 60.0709 45.0809 57.1759 43.5723 54.4802C43.1992 53.8139 42.0738 52.4654 42.6488 51.7018C43.1748 51.0037 44.8847 51.0733 45.6677 51.0005C46.4941 50.9236 47.3256 50.9205 48.1548 50.8882C48.6351 50.8697 49.6014 51.0665 49.408 50.3491C49.1164 49.2677 45.9926 49.4063 45.217 49.3887C43.7744 49.3564 42.3119 49.3898 40.8765 49.5484C33.7598 50.3355 26.579 51.7908 19.6922 53.7315C6.33065 57.4966 -6.61007 64.4343 -16.3612 74.4291C-25.7214 84.0233 -28.6868 99.9887 -22.9326 112.239C-19.9421 118.605 -13.4524 121.221 -7.1615 123.333C-3.84319 124.447 -0.329535 125.318 3.19792 125.108C4.89062 125.007 6.4967 124.551 8.14757 124.208C8.86759 124.058 9.68697 123.819 10.4265 123.88C10.9862 123.925 11.5241 124.439 12.0492 124.166C12.4218 123.972 12.5838 123.416 13.0393 123.179C13.5862 122.895 14.2491 122.792 14.8398 122.648C16.4814 122.25 18.0709 121.603 19.6754 121.073C21.3348 120.524 22.9008 119.818 24.4928 119.104C25.2967 118.743 27.1569 117.278 27.681 118.349C27.9196 118.839 27.8179 119.782 27.8761 120.295C27.978 121.192 28.0978 122.088 28.2288 122.981C28.5171 124.948 28.8624 126.907 29.2161 128.864C29.8546 132.394 30.6776 135.773 32.0535 139.094C33.1521 141.745 34.1165 144.751 36.1566 146.86C37.0471 147.781 38.2621 148.195 39.5394 147.906C40.9922 147.577 41.7154 146.257 42.5974 145.19C44.5379 142.842 47.7418 141.043 50.7002 140.395C54.3228 139.602 57.8517 140.762 61.3095 141.748C64.9674 142.791 68.6908 143.785 72.2811 145.038C75.6266 146.207 79.239 147.932 82.8671 147.782C86.0312 147.651 88.9865 145.076 91.2684 143.113C93.5601 141.142 96.4257 138.255 99.7211 138.488C101.357 138.603 102.848 139.392 104.442 139.713C106.192 140.066 108.054 140.115 109.833 140.247C112.042 140.41 116.984 139.834 117.801 137.177C117.922 136.782 117.923 135.971 117.402 135.813C116.923 135.668 116.678 136.228 116.225 136.202C115.302 136.15 114.581 134.541 114.074 133.918C112.027 131.403 109.221 129.527 106.924 127.255C104.332 124.689 102.118 121.581 100.164 118.515C101.048 118.286 102 118.667 102.855 118.848C103.894 119.068 104.906 119.334 105.93 119.616C107.058 119.927 108.202 120.14 109.347 120.377C110.201 120.553 111.335 120.606 112.106 121.035C112.779 121.409 113.155 121.811 113.99 121.919C114.84 122.03 115.713 121.937 116.566 121.931C118.875 121.915 121.179 121.872 123.478 121.628C131.598 120.766 140.206 117.331 145.089 110.514C146.417 108.66 147.486 106.606 148.163 104.427C148.69 102.725 149.6 100.327 149.141 98.5402Z" fill="black"/>
<path fill-rule="evenodd" clip-rule="evenodd" d="M55.1674 39.585C53.7223 40.0334 52.0143 39.5058 51.1836 38.2159C50.339 36.9043 49.761 35.3866 49.6447 33.8242C49.5334 32.3273 49.8734 30.8117 50.7562 29.5827C51.6956 28.2754 53.6104 26.8101 55.3269 27.2641C55.6885 27.3598 56.0155 27.5902 56.3399 27.8189C56.6839 28.0614 57.0251 28.3019 57.4016 28.3771C57.4984 28.3964 57.5661 28.4147 57.6166 28.4281C57.6848 28.4463 57.7211 28.4561 57.7534 28.4487C57.7905 28.4402 57.8224 28.4094 57.8908 28.3433C57.9296 28.3055 57.9806 28.2563 58.0511 28.1932C58.1963 28.0635 58.3367 27.8681 58.4738 27.677H58.474C58.5662 27.5486 58.6573 27.4218 58.7473 27.3184C58.9208 27.1195 59.0938 26.9184 59.2675 26.7169C60.384 25.4217 61.5216 24.1016 62.8861 23.0772C65.7133 20.9545 69.4709 19.9519 72.9784 20.0018C75.1123 20.032 77.1125 20.6648 79.1009 21.3842C79.2678 21.4445 79.4358 21.5045 79.6042 21.5646L79.6048 21.5648C81.2018 22.1347 82.8488 22.7226 84.1277 23.8644C86.671 26.1357 87.3335 29.8963 87.7496 33.1136C88.2002 36.5977 86.9585 39.5952 85.6722 42.7005V42.701L85.6717 42.7016V42.7018C85.476 43.1745 85.2791 43.6494 85.0872 44.1289C83.7274 47.526 81.2315 50.278 78.2648 52.375C76.7103 53.4734 74.9925 54.1365 73.1954 54.7178C72.8225 54.8384 72.452 54.9675 72.0819 55.0964H72.0817H72.0815C70.6396 55.5984 69.2027 56.0986 67.6484 56.0963C64.6822 56.092 60.8848 54.6832 59.6213 51.7609C59.0461 50.4302 59.6062 50.1914 60.7572 50.9146C60.9585 51.0409 61.1588 51.1685 61.359 51.2959V51.2961H61.3592L61.3598 51.2968C62.8209 52.2272 64.2726 53.1521 65.9886 53.5613C69.7732 54.4641 74.3061 53.0655 77.6246 51.2199C80.9418 49.375 83.169 46.6032 84.6574 43.1522C86.159 39.6704 86.7425 36.2395 86.1633 32.4861C85.6728 29.3052 84.6963 26.3997 81.83 24.673C75.6421 20.9459 67.3049 21.2462 61.8021 26.0899C61.0473 26.7538 60.3014 27.4 59.5238 28.0342C59.0293 28.4372 58.4471 28.9207 58.5191 29.6175C58.5348 29.7713 58.6309 30.0382 58.7388 30.3373C59.0497 31.2003 59.4582 32.3335 58.3205 31.8088C57.8515 31.5924 57.4633 31.2979 57.0807 31.0077C56.4503 30.5295 55.8352 30.0628 54.8986 29.9766C53.297 29.8288 51.3866 31.0591 50.9074 32.6076C50.4505 34.0852 51.2654 36.1068 52.5417 36.9542C53.2598 37.4311 54.0435 37.4078 54.854 37.3836C54.9355 37.3812 55.0175 37.3787 55.0995 37.3768C55.1619 37.3753 55.24 37.3712 55.3288 37.3666C55.874 37.3377 56.8264 37.2876 57.0799 37.6925C57.6016 38.5255 55.7613 39.4009 55.1674 39.585ZM74.4464 46.1764C74.7178 45.6432 74.9862 45.116 75.2898 44.6395C75.4306 44.4185 75.6603 44.2658 75.8805 44.1195H75.8807C75.944 44.0775 76.0064 44.0359 76.0659 43.9934C76.808 45.1498 76.0748 46.3885 75.4433 47.4553C75.3701 47.5791 75.2981 47.7005 75.2301 47.8192C75.0303 48.1674 74.8354 48.5301 74.6386 48.8959C74.2182 49.6775 73.7901 50.4731 73.2939 51.1725C72.084 52.8771 69.452 51.033 69.3738 49.2811C69.314 47.94 70.2639 48.5237 70.8738 49.0246C71.5014 49.5406 71.7987 49.669 72.4567 49.1055C73.341 48.3479 73.8999 47.2499 74.4464 46.1764ZM67.3214 41.4527C67.5877 39.6937 66.3834 41.0596 66.1258 41.8686C65.8077 42.8668 65.5447 44.2767 66.0256 45.2672C66.9087 47.0854 69.3983 46.2189 70.5964 45.253C71.1581 44.8001 71.9452 43.8567 71.9184 43.0704C71.8719 41.7024 70.8181 42.5226 70.1699 43.0271H70.1697C70.0871 43.0914 70.0111 43.1507 69.9444 43.1995C69.9176 43.2193 69.889 43.2403 69.859 43.2624C69.2577 43.7066 68.0627 44.5892 67.3624 44.1525C66.7189 43.7514 66.9768 42.7986 67.1798 42.0491C67.2406 41.8255 67.2962 41.62 67.3214 41.4527ZM70.8833 34.3589C72.3049 34.0759 74.1358 34.2217 75.3726 35.0277C76.9664 36.066 74.8709 36.8137 73.9632 36.9067C72.8644 37.0188 71.4596 37.0931 70.4504 36.554C69.0199 35.7898 69.4968 34.6354 70.8833 34.3589ZM54.6523 31.7224C53.5654 31.5111 52.0485 32.0598 52.7967 33.3524C53.3552 34.3173 54.7311 34.6419 55.8078 34.8961C55.9386 34.9269 56.0651 34.9568 56.1851 34.9865C57.3822 35.2838 57.9744 34.8456 57.5623 33.5251C57.1631 32.2471 55.8244 31.9504 54.6523 31.7224ZM77.3492 45.2434C77.4492 44.8258 78.0325 43.2558 78.4266 44.4083C78.4871 44.5854 78.4945 44.8453 78.5024 45.1228C78.5223 45.8241 78.5453 46.6393 79.4375 46.5208C79.8978 46.4599 80.1159 45.9978 80.318 45.5698C80.4183 45.3576 80.5144 45.1538 80.6342 45.0111C81.8508 43.5624 81.4778 46.3025 81.1599 46.9883C80.4592 48.4997 78.4981 49.5412 77.5254 47.6236C77.1636 46.9104 77.1653 46.0101 77.3492 45.2434ZM81.9294 39.1504H81.9296C82.494 39.8058 83.4346 40.8987 84.0517 40.1071C84.6538 39.3345 83.6177 38.1371 83.1011 37.5403C83.0785 37.5143 83.0571 37.4895 83.0367 37.4659C83.0221 37.4487 83.0063 37.4305 82.9898 37.4112C82.5227 36.8663 81.3249 35.4694 80.7168 36.5158C80.3365 37.1708 81.2285 38.4055 81.6525 38.8391C81.7279 38.9162 81.8218 39.0253 81.9294 39.1504ZM65.3519 52.0081C64.7694 51.3392 64.8304 50.0996 65.1603 49.3257C65.4292 48.6955 65.8787 49.4756 66.1392 49.9272C66.2027 50.0374 66.2549 50.1279 66.2906 50.1737C66.4072 50.3239 66.5747 50.4629 66.7469 50.6058C67.1055 50.9035 67.4837 51.2173 67.459 51.6783C67.3987 52.8045 65.8638 52.5956 65.3519 52.0081Z" fill="black"/>
<path fill-rule="evenodd" clip-rule="evenodd" d="M116.096 43.6845C115.457 43.511 114.818 43.3376 114.183 43.159C112.705 42.7432 114.101 41.8077 114.979 41.8735C115.659 41.9243 116.323 42.1625 116.976 42.3967C117.264 42.5001 117.551 42.6029 117.835 42.6885C120.676 43.5414 123.309 44.4742 125.963 45.7981C126.359 45.9957 128.102 46.9328 126.949 47.3476C126.343 47.5655 125.124 46.9098 124.271 46.4508C123.998 46.304 123.763 46.1775 123.597 46.1057C121.187 45.067 118.635 44.3739 116.096 43.6845ZM140.219 64.7359C130.717 58.8409 121.255 53.067 110.508 49.6899C109.947 49.5141 109.773 49.0144 110.067 48.5195C110.377 47.9978 110.972 48.0169 111.5 48.0339L111.545 48.0354C112.935 48.0793 114.293 48.5184 115.608 48.9437L115.776 48.9979C118.782 49.9689 121.646 51.3159 124.47 52.7239C129.421 55.1916 134.186 58.1774 138.553 61.5723C139.466 62.2817 140.402 62.8567 141.395 63.4368C141.457 63.4729 141.521 63.5097 141.586 63.5475C142.2 63.8993 142.96 64.3354 143.181 65.0195C143.803 66.945 140.664 65.0123 140.219 64.7359ZM-13.2169 62.9837C-16.6893 65.6852 -20.0826 68.4979 -23.2219 71.581C-24.3396 72.6787 -25.2711 73.9343 -26.2018 75.1891C-26.6279 75.7637 -27.0541 76.3381 -27.4978 76.8969C-27.5454 76.9568 -27.5979 77.0269 -27.655 77.1031C-28.0122 77.5791 -28.5465 78.2915 -29.1295 78.2127C-29.8714 78.1129 -30.0214 76.8351 -29.9977 76.2771C-29.9167 74.3742 -28.1788 72.5365 -26.9394 71.2262C-25.5452 69.7528 -24.0547 68.317 -22.5325 66.9755C-20.8566 65.4986 -19.0377 64.229 -17.1843 62.9863C-16.507 62.5321 -15.8402 62.0516 -15.172 61.5702C-14.0452 60.7585 -12.9152 59.9444 -11.7267 59.2503C-10.8352 58.7297 -9.35479 58.5316 -9.83997 60.0988C-10.1234 61.0143 -11.2367 61.7076 -12.2081 62.3125C-12.5846 62.5469 -12.9396 62.768 -13.2169 62.9837ZM-25.6544 59.2384C-23.6997 58.6299 -21.8872 57.6852 -20.0747 56.7405C-18.8938 56.125 -17.7126 55.5094 -16.4923 54.9871C-15.6147 54.6113 -14.7244 54.2675 -13.8343 53.9238C-13.0336 53.6144 -12.2332 53.3052 -11.4418 52.9729C-11.3673 52.9415 -11.2866 52.9118 -11.2036 52.881C-10.7891 52.7277 -10.3188 52.5536 -10.2627 52.0652C-10.1859 51.3892 -10.5806 51.4093 -11.0628 51.434H-11.063C-11.094 51.4354 -11.1254 51.4371 -11.1573 51.4384C-12.2563 51.4879 -13.4184 51.975 -14.5166 52.4353C-14.9699 52.6256 -15.4126 52.8111 -15.8353 52.9593C-16.2118 53.0914 -16.5887 53.2203 -16.9654 53.349C-18.1451 53.7524 -19.3214 54.1548 -20.472 54.648C-22.0029 55.3041 -23.5663 55.9829 -24.945 56.9274C-24.9938 56.9609 -25.0448 56.9951 -25.097 57.0304C-25.5535 57.3376 -26.106 57.7096 -26.3035 58.2171C-26.5012 58.7237 -26.3922 59.4684 -25.6544 59.2384Z" fill="black"/>
<path fill-rule="evenodd" clip-rule="evenodd" d="M55.274 46.187C55.4587 45.6451 57.7434 39.7207 56.8491 39.5421C55.9018 39.3525 54.6357 42.7899 54.361 43.411C53.3462 45.7046 52.7453 48.1655 52.2746 50.6258C51.9465 52.3389 51.6584 54.0938 51.7733 55.8451C51.8616 57.1911 52.4175 57.3949 53.3335 58.2196C53.3335 54.1314 53.9548 50.0565 55.274 46.187Z" fill="black"/>
</g>
</g>
<defs>
<linearGradient id="paint0_linear_3661_457" x1="59.5" y1="0" x2="59.5" y2="119" gradientUnits="userSpaceOnUse">
<stop stop-color="#833AB4"/>
<stop offset="0.5" stop-color="#FD1D1D"/>
<stop offset="1" stop-color="#FCB045"/>
</linearGradient>
<clipPath id="clip0_3661_457">
<rect width="119" height="119" fill="white"/>
</clipPath>
</defs>
</svg>
