<svg width="119" height="119" viewBox="0 0 119 119" fill="none" xmlns="http://www.w3.org/2000/svg">
<g clip-path="url(#clip0_3661_471)">
<circle cx="59.5" cy="59.5" r="57" stroke="url(#paint0_linear_3661_471)" stroke-width="5"/>
<circle cx="59.78" cy="59.78" r="44.78" fill="#A6CFAC"/>
<mask id="mask0_3661_471" style="mask-type:alpha" maskUnits="userSpaceOnUse" x="15" y="15" width="90" height="90">
<circle cx="59.78" cy="59.78" r="44.78" fill="#C4C4C4"/>
</mask>
<g mask="url(#mask0_3661_471)">
<path fill-rule="evenodd" clip-rule="evenodd" d="M59.0465 76.2245C65.5221 80.1277 71.8847 82.0135 74.8714 81.2437C82.3607 79.3132 83.0493 51.9153 77.2544 41.1141C71.4596 30.313 41.6694 25.6052 40.1679 47.0057C39.6467 54.4331 42.7655 61.0616 47.3734 66.4703L39.1111 104.98H63.1111L59.0465 76.2245Z" fill="#B28B67"/>
<path fill-rule="evenodd" clip-rule="evenodd" d="M60.2464 49.369C62.3223 46.278 64.3154 43.9202 66.9079 42.551C77.459 42.7178 78.6943 40.8263 78.6943 34.451C76.9902 33.2316 70.9771 31.1782 64.2432 30.6007C60.808 29.6176 56.7386 29.8025 52.8185 31.4423C47.9792 32.8153 43.8816 35.7723 42.0716 41.3084C35.5233 52.6091 40.4935 64.3728 47.1915 68.3913C48.9744 66.279 50.5303 64.2319 51.9187 62.2723C50.8034 61.1828 50.1111 59.6623 50.1111 57.9801C50.1111 54.6664 52.7974 51.9801 56.1111 51.9801C56.3547 51.9801 56.595 51.9946 56.831 52.0228C56.9801 56.1658 57.5937 70.1827 59.2056 75.0516C61.1059 80.7917 72.1948 82.2011 76.0624 82.2011C79.4028 82.2011 79.289 79.0379 79.2074 76.7709C79.1956 76.4444 79.1845 76.1365 79.1845 75.8593C79.1845 75.2802 78.4313 75.2817 77.5802 75.2834C76.4751 75.2856 75.2051 75.2881 75.2051 74.0201C75.2051 72.638 77.1151 71.5778 78.8242 70.6291C79.8906 70.0373 80.8787 69.4888 81.2761 68.9326C82.5297 67.1778 82.952 64.8111 81.0607 64.8111C80.027 64.8111 78.6086 65.4071 76.9022 66.1241C74.3262 67.2065 71.0937 68.5648 67.5369 68.5648C61.6611 68.5648 60.2637 49.6062 60.2464 49.369Z" fill="#191847"/>
</g>
</g>
<defs>
<linearGradient id="paint0_linear_3661_471" x1="59.5" y1="0" x2="59.5" y2="119" gradientUnits="userSpaceOnUse">
<stop stop-color="#833AB4"/>
<stop offset="0.5" stop-color="#FD1D1D"/>
<stop offset="1" stop-color="#FCB045"/>
</linearGradient>
<clipPath id="clip0_3661_471">
<rect width="119" height="119" fill="white"/>
</clipPath>
</defs>
</svg>
