<svg width="119" height="119" viewBox="0 0 119 119" fill="none" xmlns="http://www.w3.org/2000/svg">
<g clip-path="url(#clip0_3661_557)">
<circle cx="59.5" cy="59.5" r="57" stroke="url(#paint0_linear_3661_557)" stroke-width="5"/>
<circle cx="59.78" cy="59.78" r="44.78" fill="#9E0722"/>
<mask id="mask0_3661_557" style="mask-type:alpha" maskUnits="userSpaceOnUse" x="15" y="15" width="90" height="90">
<circle cx="59.78" cy="59.78" r="44.78" fill="#C4C4C4"/>
</mask>
<g mask="url(#mask0_3661_557)">
<path fill-rule="evenodd" clip-rule="evenodd" d="M78.0693 70.0028C80.7262 71.9289 80.3034 75.7189 79.5034 78.4725C78.3256 82.527 75.9797 86.2803 73.3035 89.5156C68.5558 95.2551 60.496 101.7 53.0666 96.6609C46.4506 92.1734 42.2772 83.1186 40.8367 75.4915C40.3914 73.1344 39.7984 69.6224 41.8904 67.8504C44.9829 65.2312 50.4383 65.7077 54.1717 66.0449C56.6304 66.2668 59.0026 67.0203 61.4324 66.6668C67.0776 65.844 73.3604 66.5891 78.0693 70.0028Z" fill="#9E0722"/>
<path fill-rule="evenodd" clip-rule="evenodd" d="M-36.3907 100.037C-31.0083 106.865 -21.8574 107.944 -13.7299 107.877C-8.84969 107.836 -3.95981 107.469 0.824661 106.475C3.40419 105.938 5.9662 105.228 8.45845 104.375C10.1048 103.811 12.5556 103.529 13.2564 101.765C15.1042 97.111 13.7445 91.2743 12.9837 86.5502C12.5965 84.1473 12.3057 81.7301 11.9294 79.3255C11.6885 77.7868 11.5732 76.0847 10.9282 74.6453C10.1735 72.9591 9.21989 73.2958 7.62283 73.7615C5.42314 74.4038 3.1642 74.6707 0.902618 75.0161C-4.6176 75.859 -9.43362 77.5588 -14.4505 79.9681C-19.411 82.35 -24.2229 84.7015 -28.6477 88.0136C-30.8894 89.6924 -32.8211 91.5143 -34.6208 93.6535C-36.0111 95.3064 -38.0859 97.8865 -36.3907 100.037ZM-12.8625 130.364C-12.8193 131.099 -4.38374 128.879 -3.27368 128.63C4.01003 126.997 11.438 125.136 18.3141 122.184C24.7324 119.429 30.3876 116.277 35.4383 111.382C37.7924 109.101 39.9101 106.698 41.9363 104.139C42.9518 102.857 44.3392 103.006 45.4718 101.921C46.4904 100.944 47.2717 100.181 46.9532 98.7215C44.4078 99.3921 39.7077 103.608 37.0689 101.479C35.565 100.266 37.6508 98.998 38.614 98.2949C40.4242 96.9726 41.9722 95.3414 43.4113 93.6293C40.9404 94.1084 38.6406 95.0337 36.4902 96.3218C35.5349 96.8941 32.2602 98.9691 31.4979 96.991C31.0287 95.7732 33.2491 94.243 33.9414 93.5691C35.6415 91.9151 37.4765 89.9841 38.379 87.7602C36.1475 87.2425 34.0441 88.9672 32.5245 90.3718C30.8378 91.9315 28.7701 93.5683 27.3555 95.3653C26.6258 96.292 26.467 97.3869 25.8971 98.3866C25.2556 99.5113 24.2297 100.475 23.2492 101.307C21.3599 102.911 19.1503 104.092 16.8823 105.069C11.6996 107.3 6.14462 108.879 0.6203 109.987C-2.09004 110.53 -4.73352 110.781 -7.48444 110.873C-9.62222 110.945 -10.5682 111.584 -11.3845 113.554C-13.5933 118.884 -13.1924 124.747 -12.8625 130.364ZM50.5765 89.7511C51.8127 90.9076 53.4188 91.6331 54.7108 92.7449C55.8477 93.7233 57.1589 94.7671 58.4278 95.5583C59.7826 96.4027 60.7945 95.8106 62.0141 95.0465C63.4459 94.1502 65.092 93.7867 66.5667 92.9846C71.6653 90.2095 77.9029 83.4098 76.9511 77.1664C76.5479 74.5203 75.1798 71.9165 72.6954 70.7157C70.4391 69.6258 67.1594 69.0205 64.7454 69.932C63.384 70.4462 62.4097 71.5811 61.5373 72.697C60.5201 73.9977 60.1306 73.7927 59.0947 72.5381C57.2407 70.2938 54.1838 68.3248 51.1616 68.372C49.6597 68.396 48.1678 68.7125 46.8148 69.3358C46.6315 69.4205 46.5296 69.6763 46.3453 69.763C46.1194 69.8696 45.7483 69.6479 45.5912 69.7475C45.195 69.9983 44.7994 70.7817 44.571 71.1793C43.6543 72.7743 42.0035 75.9025 43.6668 77.2455C43.668 77.2461 43.593 79.0627 43.6157 79.2697C43.7331 80.3535 44.1077 81.2481 44.5903 82.2393C46.0399 85.2165 48.1795 87.5088 50.5765 89.7511ZM48.112 114.942C49.2828 115.306 50.5441 111.636 49.4209 111.051C48.35 110.492 47.0519 114.613 48.112 114.942ZM66.5025 110.555C66.908 111.941 67.0794 113.514 68.0709 114.642C68.9789 113.565 69.0686 111.577 68.188 110.469C67.6852 109.837 66.059 109.04 66.5025 110.555ZM29.0328 86.2685C29.0392 86.3035 27.6238 86.9806 28.3143 87.7207C29.2579 88.7318 29.1283 86.764 29.0328 86.2685ZM23.1833 74.9717C23.1993 76.3731 26.1663 76.0347 26.1452 74.6251C26.1193 72.8902 23.1657 73.4859 23.1833 74.9717ZM26.7248 63.2582C26.4311 61.975 21.2703 60.1899 21.411 62.4264C21.4814 63.5476 27.3476 65.9864 26.7248 63.2582ZM79.6308 106.774C80.2092 107.47 81.0311 107.744 81.7242 108.278C82.4515 108.837 82.9712 109.563 83.6062 110.22C85.3504 112.023 87.45 113.505 89.3317 115.162C92.7909 118.207 96.1048 121.48 99.9401 124.063C106.794 128.677 114.742 131.201 122.632 133.411C123.286 133.594 125.169 134.333 125.816 133.783C126.513 133.189 126.158 131.101 126.126 130.311C125.996 127.073 125.618 123.796 125.659 120.563C125.676 119.235 126.065 117.347 125.372 116.132C124.598 114.775 122.438 114.378 121.102 113.867C117.04 112.315 113.128 109.696 109.54 107.271C105.13 104.289 100.676 101.258 96.1375 98.4754C91.6911 95.7487 86.7863 93.9227 81.8264 92.3654C81.5966 92.8483 83.9633 94.4021 84.234 94.6199C85.5315 95.6646 86.9431 96.7475 87.9063 98.1265C88.5884 99.1028 89.2876 101.312 87.4047 101.368C86.492 101.396 85.1426 100.513 84.3148 100.227C82.9478 99.7556 81.5391 99.4246 80.109 99.2091C81.3385 100.563 85.5055 102.994 84.7472 105.245C84.0118 107.43 79.7569 104.881 78.2924 104.881C78.5324 105.642 79.1359 106.18 79.6308 106.774ZM129.897 112.871C132.622 113.83 135.415 114.374 138.227 114.993C140.908 115.583 143.385 116.027 146.131 115.682C149.922 115.205 154.117 113.635 154.597 109.328C155.167 104.224 151.563 99.5343 148.468 95.8728C144.701 91.4179 140.472 87.4352 135.888 83.8291C131.309 80.2262 126.367 77.0502 121.19 74.3688C117.251 72.3288 112.802 71.0903 108.637 69.5592C107.845 69.2681 105.653 68.2447 104.912 69.0929C104.313 69.7787 105.128 70.9212 105.401 71.558C105.934 72.7994 106.007 74.0494 106.145 75.3822C106.759 81.3348 107.498 87.2857 107.838 93.264C107.933 94.93 108.1 96.6731 108.002 98.3402C107.949 99.2637 107.468 100.44 107.788 101.341C108.403 103.074 111.221 104.222 112.714 104.996C115.386 106.382 118.217 107.416 120.917 108.742C123.883 110.198 126.77 111.771 129.897 112.871ZM92.1072 74.193C91.3591 74.0902 90.2389 73.8864 89.572 74.3711C88.7025 75.0029 88.9306 75.882 89.7338 76.3404C90.3679 76.7028 91.8523 76.8017 92.4788 76.473C93.5463 75.9133 93.3655 74.3661 92.1072 74.193ZM87.965 87.9768C88.5694 88.9835 90.7781 89.6436 90.5857 87.7651C90.4208 86.1567 86.8517 86.1231 87.965 87.9768ZM88.7849 59.6183C87.8132 59.9946 86.05 60.3167 85.7618 61.5666C85.4938 62.7298 86.596 62.653 87.3916 62.3327C88.0459 62.0699 90.9606 59.5981 88.7849 59.6183ZM-63.4453 103.994C-62.878 101.786 -63.3101 99.3411 -62.9968 97.0792C-62.6932 94.8865 -62.1463 92.8716 -61.3621 90.8054C-59.6252 86.2308 -57.6351 82.1129 -54.8197 78.0981C-49.5173 70.5376 -43.3652 63.8781 -35.9367 58.3558C-28.6028 52.9042 -20.4817 48.4736 -11.8788 45.3685C-2.75659 42.0754 6.42607 40.9294 16.0461 40.2982C18.9191 40.1099 21.7891 39.8865 24.6457 39.5236C26.7336 39.2585 29.3508 38.9318 31.415 39.5712C32.7116 39.9732 33.4363 41.104 32.0234 41.8462C31.022 42.3723 29.7105 42.4354 28.6042 42.5753C29.9405 46.8205 32.1148 51.0806 35.5606 54.0037C38.9247 56.8577 43.4262 57.8361 47.6717 58.5599C49.9739 58.952 52.5517 59.2557 54.8895 59.0863C56.3677 58.9797 57.521 58.2954 58.1175 59.8177C58.5312 60.8755 58.7271 62.0361 59.2728 60.439C59.918 58.5508 60.2348 58.5628 62.2421 58.0265C66.3474 56.9298 71.054 55.9293 74.6355 53.5573C78.3511 51.0966 79.6434 47.1159 81.7178 43.4091C82.2308 42.4929 83.7782 40.6386 82.9875 39.5887C82.2643 38.6287 79.9131 38.7245 78.8364 38.6243C77.7 38.5187 76.5567 38.5143 75.4165 38.4699C74.7561 38.4445 73.4274 38.7151 73.6934 37.7286C74.0942 36.2416 78.3896 36.4323 79.4562 36.408C81.4398 36.3636 83.4509 36.4095 85.4246 36.6276C95.2105 37.7099 105.085 39.7111 114.554 42.3796C132.927 47.5568 150.721 57.0966 164.13 70.8401C177.001 84.0326 181.078 105.986 173.166 122.83C169.054 131.585 160.13 135.181 151.48 138.085C146.917 139.617 142.085 140.816 137.235 140.527C134.907 140.388 132.699 139.761 130.429 139.289C129.439 139.083 128.312 138.754 127.295 138.837C126.525 138.9 125.786 139.607 125.064 139.231C124.551 138.965 124.329 138.2 123.702 137.874C122.95 137.483 122.039 137.341 121.227 137.144C118.969 136.596 116.784 135.707 114.577 134.978C112.296 134.224 110.142 133.253 107.953 132.271C106.848 131.775 104.29 129.759 103.569 131.233C103.241 131.906 103.381 133.203 103.301 133.908C103.161 135.142 102.996 136.373 102.816 137.602C102.419 140.307 101.945 143 101.458 145.691C100.58 150.545 99.4487 155.192 97.5567 159.758C96.0461 163.404 94.72 167.536 91.9148 170.437C90.6902 171.703 89.0196 172.273 87.2631 171.875C85.2655 171.422 84.271 169.607 83.0582 168.14C80.3899 164.911 75.9844 162.438 71.9164 161.547C66.9352 160.456 62.0827 162.051 57.328 163.407C52.2982 164.841 47.1783 166.208 42.2414 167.932C37.6412 169.538 32.674 171.911 27.6851 171.705C23.3342 171.525 19.2706 167.984 16.1328 165.285C12.9816 162.574 9.04121 158.605 4.50987 158.924C2.25998 159.083 0.209488 160.168 -1.98201 160.609C-4.38812 161.094 -6.94839 161.163 -9.39508 161.343C-12.4321 161.567 -19.2271 160.775 -20.3506 157.122C-20.5173 156.58 -20.5182 155.463 -19.8026 155.246C-19.1439 155.047 -18.8075 155.817 -18.1839 155.782C-16.9147 155.71 -15.9229 153.498 -15.2257 152.641C-12.412 149.182 -8.55246 146.603 -5.39513 143.478C-1.8299 139.951 1.21385 135.677 3.90024 131.461C2.68565 131.146 1.37561 131.67 0.20015 131.919C-1.22816 132.222 -2.61996 132.587 -4.02725 132.975C-5.57848 133.402 -7.15189 133.695 -8.72618 134.021C-9.90076 134.263 -11.4599 134.337 -12.52 134.926C-13.4455 135.44 -13.9623 135.993 -15.1112 136.142C-16.2797 136.294 -17.4794 136.166 -18.6534 136.158C-21.8282 136.136 -24.9966 136.077 -28.1566 135.742C-39.3226 134.556 -51.1587 129.833 -57.8731 120.459C-59.6991 117.91 -61.1703 115.086 -62.1002 112.089C-62.8257 109.749 -64.0768 106.451 -63.4453 103.994Z" fill="#0BD6FF"/>
<path fill-rule="evenodd" clip-rule="evenodd" d="M65.7739 22.9273C67.761 23.544 70.1096 22.8184 71.2518 21.0447C72.4132 19.2412 73.2079 17.1543 73.3679 15.006C73.5209 12.9476 73.0535 10.8635 71.8395 9.17362C70.5478 7.37598 67.9149 5.36111 65.5546 5.98534C65.0574 6.11702 64.6077 6.4338 64.1616 6.74825C63.6886 7.08168 63.2194 7.41248 62.7018 7.51583C62.5686 7.5424 62.4755 7.56751 62.406 7.58591C62.3123 7.61101 62.2624 7.62444 62.218 7.61423C62.1669 7.60255 62.1231 7.56021 62.0291 7.46941C61.9756 7.41744 61.9056 7.3497 61.8086 7.26299C61.6089 7.0846 61.4159 6.81599 61.2273 6.55322H61.2271C61.1003 6.37657 60.9751 6.20227 60.8513 6.06008C60.6127 5.78651 60.3748 5.51002 60.136 5.23294C58.6008 3.45194 57.0364 1.63677 55.1602 0.228118C51.2727 -2.69068 46.1057 -4.06927 41.2827 -4.00074C38.3485 -3.95919 35.5981 -3.08907 32.8639 -2.09986C32.6344 -2.01685 32.4034 -1.93446 32.1719 -1.85177L32.171 -1.85148C29.9751 -1.06781 27.7103 -0.259499 25.9518 1.31064C22.4546 4.43382 21.5437 9.60486 20.9714 14.0288C20.3519 18.8196 22.0593 22.9414 23.828 27.2114V27.212L23.8286 27.2128V27.2131C24.0978 27.8631 24.3685 28.5162 24.6324 29.1754C26.5022 33.8466 29.9343 37.6308 34.0136 40.5143C36.1511 42.0247 38.5131 42.9365 40.9844 43.7359C41.497 43.9017 42.0065 44.0792 42.5154 44.2565H42.5157H42.516C44.4988 44.9467 46.4745 45.6345 48.6117 45.6313C52.6905 45.6255 57.9121 43.6883 59.6496 39.6699C60.4405 37.8402 59.6703 37.5117 58.0875 38.5061C57.8107 38.6799 57.5354 38.8553 57.2601 39.0305V39.0308H57.2598L57.2589 39.0317C55.2499 40.3111 53.2537 41.5829 50.894 42.1455C45.69 43.387 39.4571 41.4638 34.8939 38.926C30.3325 36.3891 27.2701 32.5777 25.2234 27.8324C23.1586 23.0447 22.3562 18.3271 23.1527 13.166C23.8272 8.79202 25.1699 4.79674 29.1112 2.42246C37.62 -2.70245 49.0841 -2.28952 56.6507 4.37076C57.6887 5.28374 58.7144 6.1722 59.7836 7.0443C60.4636 7.59846 61.2641 8.26327 61.1652 9.22151C61.1435 9.43289 61.0113 9.79989 60.863 10.2113C60.4355 11.3978 59.8738 12.9561 61.4381 12.2346C62.0831 11.9371 62.6168 11.5321 63.1429 11.133C64.0098 10.4755 64.8556 9.83376 66.1435 9.71522C68.3458 9.51201 70.9726 11.2037 71.6316 13.333C72.2599 15.3648 71.1394 18.1446 69.3843 19.3099C68.3969 19.9656 67.3192 19.9335 66.2048 19.9002C66.0927 19.897 65.98 19.8935 65.8673 19.8909C65.7814 19.8888 65.674 19.8833 65.552 19.8769C64.8022 19.8372 63.4927 19.7683 63.1441 20.325C62.4267 21.4704 64.9572 22.6742 65.7739 22.9273ZM39.2641 31.9909C38.8909 31.2578 38.5219 30.5328 38.1044 29.8776C37.9108 29.5737 37.5949 29.3638 37.2921 29.1626H37.2918C37.2048 29.1048 37.119 29.0476 37.0372 28.9892C36.0168 30.5792 37.025 32.2826 37.8933 33.7494C37.994 33.9196 38.093 34.0866 38.1864 34.2498C38.4612 34.7287 38.7292 35.2274 38.9999 35.7304C39.5779 36.8051 40.1666 37.8992 40.8489 38.8609C42.5125 41.2048 46.1317 38.6691 46.2392 36.26C46.3215 34.416 45.0152 35.2186 44.1767 35.9073C43.3137 36.6168 42.9049 36.7935 42.0001 36.0186C40.7841 34.9768 40.0156 33.4671 39.2641 31.9909ZM49.0613 25.4955C48.6952 23.0768 50.3513 24.9551 50.7054 26.0675C51.1428 27.44 51.5045 29.3787 50.8432 30.7407C49.6289 33.2408 46.2056 32.0493 44.558 30.7211C43.7858 30.0984 42.7035 28.8011 42.7402 27.72C42.8042 25.8388 44.2532 26.9667 45.1446 27.6604H45.1449C45.2585 27.7489 45.363 27.8304 45.4547 27.8975C45.4914 27.9247 45.5309 27.9536 45.572 27.9839C46.3989 28.5947 48.0421 29.8084 49.005 29.2079C49.89 28.6563 49.5352 27.3463 49.2561 26.3156C49.1726 26.0082 49.0961 25.7256 49.0613 25.4955ZM44.1636 15.7411C42.2089 15.352 39.6912 15.5525 37.9905 16.6608C35.799 18.0886 38.6804 19.1166 39.9286 19.2445C41.4395 19.3986 43.3712 19.5008 44.7589 18.7595C46.7259 17.7087 46.0701 16.1213 44.1636 15.7411ZM66.4822 12.1158C67.9768 11.8253 70.0626 12.5797 69.0337 14.3572C68.2658 15.6839 66.3738 16.1303 64.8933 16.4798C64.7134 16.5222 64.5394 16.5633 64.3745 16.6042C62.7283 17.013 61.914 16.4103 62.4808 14.5946C63.0297 12.8372 64.8705 12.4294 66.4822 12.1158ZM35.2726 30.708C35.1351 30.1337 34.333 27.9749 33.7911 29.5597C33.7079 29.8032 33.6977 30.1605 33.6869 30.5421C33.6595 31.5065 33.6279 32.6274 32.4011 32.4645C31.7681 32.3807 31.4682 31.7453 31.1903 31.1567C31.0525 30.8651 30.9202 30.5848 30.7556 30.3886C29.0826 28.3965 29.5956 32.1643 30.0326 33.1074C30.9961 35.1856 33.6928 36.6177 35.0303 33.9809C35.5278 33.0002 35.5254 31.7623 35.2726 30.708ZM28.9745 22.3297H28.9743C28.1982 23.231 26.9048 24.7337 26.0563 23.6453C25.2283 22.5828 26.6531 20.9364 27.3635 20.1157C27.3944 20.0801 27.4239 20.0459 27.4519 20.0135C27.4721 19.9899 27.4937 19.9647 27.5165 19.9382C28.1588 19.189 29.8058 17.2681 30.642 18.707C31.1649 19.6077 29.9383 21.3055 29.3553 21.9017C29.2516 22.0076 29.1226 22.1577 28.9745 22.3297ZM51.7696 40.0098C52.5705 39.0901 52.4867 37.3856 52.033 36.3214C51.6634 35.4548 51.0453 36.5275 50.687 37.1485C50.5997 37.3 50.5279 37.4244 50.4788 37.4875C50.3186 37.6939 50.0882 37.8851 49.8514 38.0816C49.3583 38.491 48.8383 38.9225 48.8721 39.5564C48.9551 41.1049 51.0657 40.8177 51.7696 40.0098Z" fill="white"/>
<path fill-rule="evenodd" clip-rule="evenodd" d="M-18.0067 28.5644C-17.1272 28.3259 -16.2493 28.0874 -15.3757 27.8418C-13.3436 27.2701 -15.2636 25.9837 -16.4712 26.0742C-17.4055 26.144 -18.3182 26.4716 -19.216 26.7936C-19.6128 26.9358 -20.0067 27.0771 -20.3982 27.1948C-24.3041 28.3676 -27.9248 29.6503 -31.5738 31.4707C-32.118 31.7425 -34.5157 33.031 -32.9297 33.6015C-32.0967 33.901 -30.4208 32.9994 -29.2474 32.3682C-28.8722 32.1664 -28.5487 31.9924 -28.3201 31.8937C-25.0075 30.4654 -21.4977 29.5124 -18.0067 28.5644ZM-51.1768 57.5113C-38.1107 49.4054 -25.1 41.4659 -10.3221 36.8222C-9.55185 36.5804 -9.31245 35.8934 -9.71654 35.2128C-10.1422 34.4955 -10.9606 34.5217 -11.6861 34.5451L-11.748 34.5471C-13.6601 34.6076 -15.5276 35.2114 -17.3357 35.7962L-17.5658 35.8706C-21.7003 37.2058 -25.6384 39.058 -29.5216 40.9941C-36.3297 44.3873 -42.8811 48.493 -48.8863 53.1612C-50.1418 54.1367 -51.4288 54.9274 -52.794 55.725C-52.8787 55.7746 -52.9668 55.8252 -53.0574 55.8771C-53.9006 56.3609 -54.9458 56.9606 -55.2498 57.9013C-56.1049 60.5489 -51.7894 57.8914 -51.1768 57.5113ZM159.806 55.102C164.581 58.8167 169.247 62.6843 173.564 66.9237C175.101 68.4332 176.382 70.1596 177.661 71.8851C178.247 72.6752 178.833 73.465 179.443 74.2334C179.509 74.3158 179.581 74.4121 179.659 74.5169C180.151 75.1715 180.885 76.1511 181.687 76.0427C182.707 75.9055 182.913 74.1485 182.881 73.3812C182.769 70.7646 180.38 68.2376 178.676 66.4358C176.758 64.4099 174.709 62.4356 172.616 60.5909C170.311 58.56 167.81 56.8143 165.262 55.1055C164.33 54.4809 163.414 53.8202 162.495 53.1583C160.945 52.0421 159.391 50.9227 157.757 49.9683C156.531 49.2524 154.496 48.98 155.163 51.135C155.553 52.394 157.083 53.3472 158.419 54.179C158.937 54.5014 159.425 54.8053 159.806 55.102ZM176.909 49.9519C174.221 49.1152 171.728 47.8162 169.236 46.5172C167.612 45.6708 165.988 44.8244 164.31 44.1062C163.103 43.5894 161.879 43.1167 160.655 42.644C159.554 42.2186 158.454 41.7935 157.365 41.3366C157.263 41.2933 157.152 41.2525 157.038 41.2101C156.468 40.9993 155.821 40.7599 155.744 40.0884C155.638 39.1588 156.181 39.1865 156.844 39.2204H156.845C156.887 39.2224 156.93 39.2248 156.974 39.2265C158.485 39.2945 160.083 39.9643 161.593 40.5973C162.217 40.8589 162.826 41.1141 163.407 41.3179C163.924 41.4995 164.443 41.6767 164.961 41.8536C166.583 42.4084 168.2 42.9616 169.783 43.6399C171.888 44.5421 174.037 45.4755 175.933 46.7742C176 46.8203 176.07 46.8673 176.142 46.9158C176.77 47.3382 177.53 47.8498 177.801 48.5476C178.073 49.2442 177.923 50.2681 176.909 49.9519Z" fill="black"/>
<path fill-rule="evenodd" clip-rule="evenodd" d="M65.6273 32.0055C65.3733 31.2604 62.2317 23.114 63.4615 22.8684C64.7639 22.6077 66.5049 27.3344 66.8827 28.1884C68.278 31.3422 69.1043 34.7261 69.7516 38.1091C70.2027 40.4647 70.5989 42.8778 70.4409 45.286C70.3195 47.1368 69.5551 47.4171 68.2956 48.5511C68.2956 42.9295 67.4413 37.3264 65.6273 32.0055Z" fill="white"/>
</g>
</g>
<defs>
<linearGradient id="paint0_linear_3661_557" x1="59.5" y1="0" x2="59.5" y2="119" gradientUnits="userSpaceOnUse">
<stop stop-color="#833AB4"/>
<stop offset="0.5" stop-color="#FD1D1D"/>
<stop offset="1" stop-color="#FCB045"/>
</linearGradient>
<clipPath id="clip0_3661_557">
<rect width="119" height="119" fill="white"/>
</clipPath>
</defs>
</svg>
